<?xml version="1.0" encoding="UTF-8" standalone="no"?>
<!-- Created with Inkscape (http://www.inkscape.org/) -->

<svg
   width="210mm"
   height="297mm"
   viewBox="0 0 210 297"
   version="1.1"
   id="svg1"
   xml:space="preserve"
   inkscape:version="1.4.4 (dcaf3e7d9e, 2026-05-05)"
   sodipodi:docname="filobelo_readingsvg"
   xmlns:inkscape="http://www.inkscape.org/namespaces/inkscape"
   xmlns:sodipodi="http://sodipodi.sourceforge.net/DTD/sodipodi-0.dtd"
   xmlns="http://www.w3.org/2000/svg"
   xmlns:svg="http://www.w3.org/2000/svg"><sodipodi:namedview
     id="namedview1"
     pagecolor="#ffffff"
     bordercolor="#000000"
     borderopacity="0.25"
     inkscape:showpageshadow="2"
     inkscape:pageopacity="0.0"
     inkscape:pagecheckerboard="0"
     inkscape:deskcolor="#d1d1d1"
     inkscape:document-units="mm"
     inkscape:zoom="0.57714995"
     inkscape:cx="311.01103"
     inkscape:cy="552.71598"
     inkscape:window-width="1536"
     inkscape:window-height="795"
     inkscape:window-x="0"
     inkscape:window-y="0"
     inkscape:window-maximized="1"
     inkscape:current-layer="layer1" /><defs
     id="defs1" /><g
     inkscape:label="Layer 1"
     inkscape:groupmode="layer"
     id="layer1"><g
       id="g7"
       transform="translate(-266.52909,-64.982285)"><path
         style="fill:#5ce1e7;fill-opacity:1"
         d="m 389.00651,311.77307 c -1.80225,-0.91286 -2.8329,-2.22542 -13.86777,-17.66094 -1.8726,-2.61937 -4.136,-5.77453 -5.02979,-7.01146 -0.89378,-1.23692 -2.62897,-3.65244 -3.85596,-5.36782 -1.22699,-1.71537 -3.07228,-4.27521 -4.10064,-5.68854 -5.5032,-7.56332 -9.50718,-13.23539 -14.88691,-21.08892 -2.03203,-2.96643 -2.5707,-3.5901 -3.04271,-3.52287 -0.69464,0.0989 -0.90211,1.07268 -0.42034,1.97287 0.18296,0.34186 0.24628,0.70794 0.14072,0.8135 -0.32216,0.32216 -5.90902,-0.9422 -9.6136,-2.17565 -11.63573,-3.87414 -20.62262,-10.82285 -27.91974,-21.58766 -4.59256,-6.77502 -8.47598,-16.38171 -9.8301,-24.31741 -1.40525,-8.23533 -1.16759,-17.96121 0.62406,-25.53886 1.76193,-7.45195 5.64508,-16.14567 10.0423,-22.48301 1.50526,-2.1694 5.65843,-7.02015 7.60166,-8.87846 8.04618,-7.69457 18.24138,-13.02946 29.54852,-15.46201 4.25558,-0.91552 11.55986,-1.33886 15.92172,-0.92279 6.89511,0.65771 12.79361,2.30572 18.83831,5.26331 5.85602,2.86527 9.74391,5.668 14.50134,10.45383 4.6976,4.72565 7.87653,9.30124 10.86736,15.64195 1.95479,4.14424 3.89795,9.91657 3.47921,10.3353 -0.0719,0.0719 -0.88356,-0.52591 -1.80374,-1.32843 -2.19209,-1.91178 -4.84752,-3.22602 -7.62851,-3.77554 -6.34683,-1.25412 -13.31143,2.06612 -16.91554,8.06416 -1.4042,2.33691 -2.40018,5.39518 -2.59972,7.98277 l -0.1614,2.09295 -1.74803,0.15713 c -0.96142,0.0864 -2.7472,0.34165 -3.96839,0.56717 -2.39082,0.44154 -2.66156,0.35586 -2.67038,-0.84504 -0.007,-0.90942 -1.04888,-3.82698 -2.05186,-5.74403 -1.11241,-2.12622 -3.81909,-4.95163 -5.97164,-6.2336 -7.13452,-4.24902 -14.92913,-3.32257 -20.69763,2.46008 -1.72978,1.73403 -2.3565,2.60054 -3.35971,4.64521 -2.07241,4.22382 -2.56738,8.42912 -1.49666,12.71577 0.85562,3.42552 2.09088,5.57007 4.72078,8.19581 3.59072,3.58503 6.82553,4.89235 12.05162,4.87055 3.36863,-0.0141 5.17326,-0.51825 8.16505,-2.28122 3.07359,-1.81117 6.5496,-5.8206 7.60073,-8.76713 0.19796,-0.55491 0.48211,-1.10299 0.63145,-1.21796 0.14934,-0.11496 1.70027,-0.35378 3.44652,-0.53071 1.74625,-0.17692 3.99493,-0.48903 4.99705,-0.69357 1.00213,-0.20454 1.9135,-0.31537 2.02527,-0.24629 0.11177,0.0691 0.58427,0.80078 1.05,1.626 1.74085,3.08462 4.74401,5.59394 8.4494,7.05998 1.79284,0.70934 2.31307,0.79308 5.04182,0.81163 2.51908,0.0171 3.36145,-0.0855 4.8948,-0.59658 3.89177,-1.29703 6.86531,-3.65166 8.86354,-7.01869 0.65484,-1.10342 1.27992,-2.00962 1.38906,-2.01378 0.37406,-0.0143 0.1938,4.35772 -0.29816,7.23128 -0.50418,2.94496 -0.71781,3.33306 -1.83882,3.34044 -0.3386,0.002 -3.92668,0.47758 -7.97353,1.05633 -4.04684,0.57875 -8.94903,1.2357 -10.89375,1.45988 -1.94471,0.22417 -4.60741,0.58037 -5.91709,0.79154 -1.30969,0.21117 -3.39329,0.5164 -4.63021,0.6783 -2.96315,0.38782 -3.85343,0.68272 -4.48496,1.48557 -0.28846,0.36672 -1.07211,2.41193 -1.74144,4.54491 -0.66934,2.13298 -1.95887,6.14033 -2.86564,8.90523 l -1.64866,5.02708 -2.10413,0.16549 c -3.38823,0.26647 -6.43424,1.79004 -8.19559,4.09928 l -0.73209,0.95983 -1.63259,-0.16727 c -6.55447,-0.67152 -14.96185,-3.53554 -20.64247,-7.03196 -5.87057,-3.61334 -11.44287,-9.35017 -15.30066,-15.75245 -1.46534,-2.43185 -2.12577,-2.94201 -2.73319,-2.11132 -0.41985,0.57417 0.0403,1.54481 2.46162,5.19272 8.18485,12.33107 20.43626,19.60061 36.46876,21.63924 2.08981,0.26573 2.12338,0.2607 2.64583,-0.39619 1.66391,-2.09208 2.40201,-2.77027 3.89775,-3.58136 1.5561,-0.84382 1.81369,-0.89923 4.17204,-0.89759 3.1385,0.002 4.92275,0.64887 6.98137,2.53033 3.89494,3.55976 3.91073,9.01442 0.0377,13.03464 -0.67781,0.70357 -1.90931,1.59653 -2.73668,1.98437 -1.31835,0.618 -1.83464,0.70516 -4.1768,0.70516 -2.53217,0 -2.76783,-0.0486 -4.48765,-0.92604 -1.36418,-0.69598 -2.13228,-1.32045 -3.09164,-2.51354 l -1.2765,-1.5875 -4.15773,-0.17546 c -7.18909,-0.30337 -13.60831,-2.00105 -20.82647,-5.50792 -4.80058,-2.33232 -7.90871,-4.38733 -11.75029,-7.769 -5.09412,-4.48425 -10.24257,-11.03346 -13.10498,-16.67051 -1.13738,-2.23988 -1.81559,-2.75143 -2.52098,-1.9015 -0.28673,0.34549 -0.2091,0.68113 0.4772,2.06329 4.59504,9.25407 12.48236,17.98634 21.33883,23.62479 2.18258,1.38954 7.40732,3.84177 10.5873,4.96915 5.19372,1.84129 10.81407,2.98256 16.08481,3.26617 3.03649,0.1634 3.13445,0.18789 3.65054,0.91266 0.29167,0.40962 1.23906,1.30158 2.10529,1.98214 0.86624,0.68055 1.57498,1.32374 1.57498,1.42929 0,0.10556 -0.25489,0.76815 -0.56643,1.47243 l -0.56642,1.2805 -0.77919,-0.91614 c -0.42855,-0.50388 -1.25446,-1.60782 -1.83535,-2.45321 -0.79436,-1.15606 -1.19194,-1.51678 -1.60393,-1.45521 -1.32605,0.19817 -1.1583,0.80875 1.07958,3.92973 1.18529,1.65302 2.15379,3.24942 2.15221,3.54756 -0.002,0.29814 -0.17752,1.11776 -0.391,1.82139 -0.33087,1.09056 -0.33497,1.40657 -0.0278,2.14183 0.43853,1.04955 1.9509,1.73822 3.81726,1.73822 h 1.26825 l 1.58551,2.31511 c 0.87204,1.27331 3.49431,5.05354 5.82728,8.40052 2.33296,3.34698 5.52787,7.93088 7.09979,10.18646 1.57192,2.25557 4.01557,5.70838 5.43034,7.67291 1.41477,1.96454 2.7009,3.81907 2.85807,4.12119 0.19954,0.38357 0.20667,1.12004 0.0236,2.4408 -0.29032,2.09503 -0.0496,2.96301 0.8219,2.96301 0.73449,0 0.97305,-0.63589 1.19112,-3.175 0.22726,-2.64622 1.21807,-6.28658 2.14147,-7.86809 0.90728,-1.5539 2.30112,-2.45091 3.80644,-2.44967 3.24556,0.003 4.6307,2.86808 4.60393,9.52401 -0.018,4.47559 -0.94116,9.07635 -2.46865,12.30313 -1.15491,2.43971 -1.78137,3.17409 -3.29339,3.86076 -1.49646,0.67959 -2.46921,0.62735 -4.14754,-0.22274 z m 53.59683,-12.82476 c -0.43656,-0.15478 -1.15094,-0.53176 -1.5875,-0.83773 -0.92213,-0.64628 -14.39607,-12.17005 -19.03507,-16.28001 -5.45414,-4.83212 -11.11064,-9.89135 -11.54134,-10.32268 -0.22765,-0.22798 -2.2456,-2.08138 -4.48434,-4.11867 -2.23874,-2.0373 -5.02904,-4.60949 -6.20068,-5.71599 -1.17163,-1.1065 -2.63625,-2.4598 -3.25471,-3.00735 -0.61847,-0.54754 -1.12448,-1.14409 -1.12448,-1.32566 0,-0.19265 0.52333,-0.40366 1.25677,-0.50672 4.33625,-0.60933 8.99164,-1.21473 9.35346,-1.21635 0.23308,-0.001 0.77776,0.32553 1.21041,0.72571 1.38493,1.28103 7.48382,6.71205 11.21629,9.98802 1.98958,1.74625 5.21669,4.60375 7.17135,6.35 1.95466,1.74625 5.5122,4.8414 7.90564,6.8781 5.82218,4.9544 5.54759,4.65843 5.36511,5.78288 -0.0836,0.51499 -0.0737,1.24796 0.0219,1.62884 0.14135,0.5632 0.30663,0.67704 0.88515,0.60968 0.69846,-0.0813 0.71701,-0.13312 1.02471,-2.86096 0.65704,-5.82491 1.8275,-9.26482 3.78655,-11.12842 2.5261,-2.40302 5.6881,-1.25185 6.78426,2.46991 0.37219,1.26369 0.48253,2.50923 0.47405,5.35122 -0.0111,3.70673 -0.20359,5.22399 -1.18595,9.34608 -1.53385,6.43616 -4.49172,9.44868 -8.04155,8.1901 z M 421.3419,241.55032 c -2.45538,-1.21538 -3.61356,-4.1972 -2.84304,-7.31959 0.98524,-3.99246 3.76654,-6.71601 7.56309,-7.40606 3.89201,-0.70739 6.34025,1.93599 6.02347,6.50357 -0.17346,2.50124 -1.02576,4.56407 -2.58434,6.25492 -2.21712,2.4053 -5.61768,3.22516 -8.15918,1.96716 z m -70.68127,-35.3122 c -7.63732,-1.48805 -12.95955,-8.60765 -12.3494,-16.51994 0.51036,-6.61822 4.93782,-12.36224 11.02649,-14.30537 2.59553,-0.82833 6.12457,-0.77583 8.8023,0.13095 2.43968,0.82618 3.79394,1.64109 5.65985,3.4058 5.59629,5.29274 6.59973,13.80163 2.40118,20.36144 -1.66414,2.60005 -4.90016,5.21415 -7.79777,6.29914 -1.51309,0.56657 -6.13419,0.94137 -7.74265,0.62798 z m 9.14307,-7.02651 c 3.20607,-2.19683 3.56112,-7.91057 0.6441,-10.36508 -2.58549,-2.17554 -6.20511,-1.21112 -7.81662,2.08267 -0.63481,1.29751 -0.70211,1.68611 -0.59123,3.41382 0.1855,2.8904 1.42175,4.75648 3.6249,5.47161 1.09092,0.35412 3.18789,0.0486 4.13885,-0.60302 z m 31.89707,2.53963 c -2.37266,-0.63809 -4.39773,-1.89713 -6.33978,-3.94161 -3.17886,-3.34651 -4.45036,-6.93429 -4.20894,-11.87636 0.26527,-5.43025 2.92223,-9.99844 7.47629,-12.85418 2.28434,-1.43246 4.46226,-1.93676 7.89386,-1.82782 2.83336,0.0899 3.0848,0.14525 5.02932,1.10628 3.64753,1.80271 6.52041,5.28466 8.00616,9.70354 0.33903,1.00835 0.48962,2.22706 0.4904,3.96875 0.003,7.48223 -5.31338,14.67562 -11.73241,15.8736 -1.98431,0.37034 -4.92336,0.30271 -6.6149,-0.1522 z m 3.51284,-6.02381 c 1.52279,-1.16149 2.13888,-2.59112 2.12673,-4.93509 -0.0187,-3.60395 -1.86985,-5.8381 -4.8565,-5.86123 -1.97979,-0.0153 -3.56952,1.07959 -4.66843,3.2154 -0.70272,1.36578 -0.6686,4.30812 0.066,5.68854 1.1304,2.12429 2.33544,2.80894 4.7501,2.69878 1.29453,-0.059 1.81569,-0.22181 2.58213,-0.8064 z m -24.56948,-1.79878 c -0.0711,-0.197 -0.0411,-0.95205 0.0667,-1.67788 l 0.19602,-1.31969 1.71699,-0.46877 c 0.94434,-0.25782 2.75505,-0.54473 4.0238,-0.63757 l 2.30681,-0.16879 0.27287,0.71771 c 0.15008,0.39474 0.27288,1.01056 0.27288,1.3685 0,0.93332 -0.48234,1.09024 -6.08542,1.97979 -1.09141,0.17327 -2.1322,0.37125 -2.31287,0.43996 -0.18068,0.0687 -0.38669,-0.0363 -0.4578,-0.23326 z"
         id="path9"
         sodipodi:nodetypes="ssssssssssssssssssssssssccscsssssscssssssssscscscssssssscsscsssssssscsssssscssssssssssssscsssscscscssssscssscsssccscsssssssssssssssssssssscssssssscsssssscsssscscsscsscsscsssccccsccsscssssss" /><path
         style="fill:#000000;fill-opacity:1"
         d="m 389.5413,313.9924 c -2.53157,-0.68277 -3.4623,-1.61381 -8.50038,-8.50318 -8.39596,-11.48115 -29.7571,-41.29863 -32.88634,-45.90521 -1.86887,-2.75119 -2.33235,-3.175 -3.47217,-3.175 -1.4695,0 -7.15764,-1.29214 -10.69053,-2.42849 -30.26737,-9.73554 -49.07097,-46.69029 -36.14217,-82.02433 20.31657,-55.52461 102.60755,-55.86891 113.37698,7.55982 0.29355,1.72891 0.60458,3.21433 0.69119,3.30094 8.62731,-2.61225 5.12038,7.90573 1.79294,12.56679 -1.33096,1.75681 -1.40276,1.93268 -1.41199,3.45841 -0.0133,2.34726 -0.82793,5.21601 -0.52434,5.53446 0.11682,0.12255 4.36266,-0.33778 9.43521,-1.02296 15.28774,-2.06499 14.61715,-2.03165 15.86018,-0.78862 0.44612,0.44613 0.63867,0.93523 0.63867,1.62236 0,0.84415 -2.41974,8.18921 -5.96976,18.12105 -1.05506,2.95172 -1.06012,2.9936 -0.43699,3.61673 2.00348,2.00348 2.85614,4.51288 2.62643,7.72967 -0.47972,6.0811 -4.32356,8.99774 -9.68348,10.62578 l -1.28843,3.86528 c -0.98415,2.95247 -1.448,3.98442 -1.96413,4.36977 -0.45456,0.33938 -1.92124,0.70886 -4.48124,1.12891 -6.993,1.14743 -7.3774,1.22383 -7.3774,1.4663 0,0.28194 2.63969,2.80825 6.74688,6.45709 1.60072,1.42209 4.10104,3.6778 5.55625,5.01268 2.47659,2.27183 5.28923,4.72426 13.73963,11.98004 1.90205,1.63316 3.60484,2.97262 3.78397,2.97656 0.17913,0.004 0.39594,-0.32025 0.48181,-0.72043 0.77649,-3.61873 3.21448,-11.61087 9.39979,-10.00642 4.33267,1.12388 5.86704,7.02042 4.34306,16.6903 -0.73385,4.65641 -2.40195,9.33342 -4.01077,11.24539 -1.60098,1.90266 -4.46387,2.77691 -6.87908,2.10069 -0.68567,-0.19198 -2.00095,-0.91996 -2.92284,-1.61773 -4.75728,-3.60077 -35.46993,-30.85657 -44.30055,-39.31431 -1.40542,-1.34607 -2.67871,-2.4474 -2.82954,-2.4474 -0.28493,0 -7.57047,1.04488 -11.94819,1.7136 -1.38245,0.21117 -4.77573,0.68837 -7.54063,1.06045 -6.89032,0.92723 -6.74687,0.8986 -6.74687,1.34652 3.39343,5.74292 7.50314,11.15362 11.33079,16.64922 7.13119,10.24433 9.47515,13.49126 9.7134,13.45534 0.60142,-0.0906 1.70495,-6.82242 6.75868,-7.18796 10.66756,-0.77164 8.2136,26.82413 -0.57369,29.43366 -1.63145,0.48449 -2.0749,0.491 -3.69435,0.0542 z m 3.61275,-1.99659 c 1.51202,-0.68667 2.13848,-1.42105 3.29339,-3.86076 2.71269,-5.73046 3.34517,-15.6443 1.26243,-19.78798 -1.4623,-2.90931 -5.3967,-2.68512 -7.20415,0.41051 -0.9234,1.58151 -1.91421,5.22187 -2.14147,7.86809 -0.21807,2.53911 -0.45663,3.175 -1.19112,3.175 -0.87146,0 -1.11222,-0.86798 -0.8219,-2.96301 0.18303,-1.32076 0.1759,-2.05723 -0.0236,-2.4408 -0.15717,-0.30212 -1.4433,-2.15665 -2.85807,-4.12119 -1.41477,-1.96453 -3.85842,-5.41734 -5.43034,-7.67291 -1.57192,-2.25558 -4.76683,-6.83948 -7.09979,-10.18646 -2.33297,-3.34698 -4.95524,-7.12721 -5.82728,-8.40052 l -1.58551,-2.31511 h -1.26825 c -1.86636,0 -3.37873,-0.68867 -3.81726,-1.73822 -0.30721,-0.73526 -0.30311,-1.05127 0.0278,-2.14183 0.21348,-0.70363 0.38943,-1.52325 0.391,-1.82139 0.002,-0.29814 -0.96692,-1.89454 -2.15221,-3.54756 -2.23788,-3.12098 -2.40563,-3.73156 -1.07958,-3.92973 0.41199,-0.0616 0.80957,0.29915 1.60393,1.45521 0.58089,0.84539 1.4068,1.94933 1.83535,2.45321 l 0.77919,0.91614 0.56642,-1.2805 c 0.31154,-0.70428 0.56643,-1.36687 0.56643,-1.47243 0,-0.10555 -0.70874,-0.74874 -1.57498,-1.42929 -0.86623,-0.68056 -1.81362,-1.57252 -2.10529,-1.98214 -0.51609,-0.72477 -0.61405,-0.74926 -3.65054,-0.91266 -5.27074,-0.28361 -10.89109,-1.42488 -16.08481,-3.26617 -3.17998,-1.12738 -8.40472,-3.57961 -10.5873,-4.96915 -8.85647,-5.63845 -16.74379,-14.37072 -21.33883,-23.62479 -0.6863,-1.38216 -0.76393,-1.7178 -0.4772,-2.06329 0.70539,-0.84993 1.3836,-0.33838 2.52098,1.9015 2.86241,5.63705 8.01086,12.18626 13.10498,16.67051 3.84158,3.38167 6.94971,5.43668 11.75029,7.769 7.21816,3.50687 13.63738,5.20455 20.82647,5.50792 l 4.15773,0.17546 1.2765,1.5875 c 0.95936,1.19309 1.72746,1.81756 3.09164,2.51354 1.71982,0.87741 1.95548,0.92604 4.48765,0.92604 2.34216,0 2.85845,-0.0872 4.1768,-0.70516 0.82737,-0.38784 2.05887,-1.2808 2.73668,-1.98437 3.873,-4.02022 3.85721,-9.47488 -0.0377,-13.03464 -2.05862,-1.88146 -3.84287,-2.52815 -6.98137,-2.53033 -2.35835,-0.002 -2.61594,0.0538 -4.17204,0.89759 -1.49574,0.81109 -2.23384,1.48928 -3.89775,3.58136 -0.52245,0.65689 -0.55602,0.66192 -2.64583,0.39619 -16.0325,-2.03863 -28.28391,-9.30817 -36.46876,-21.63924 -2.42133,-3.64791 -2.88147,-4.61855 -2.46162,-5.19272 0.60742,-0.83069 1.26785,-0.32053 2.73319,2.11132 3.85779,6.40228 9.43009,12.13911 15.30066,15.75245 5.68062,3.49642 14.088,6.36044 20.64247,7.03196 l 1.63259,0.16727 0.73209,-0.95983 c 1.76135,-2.30924 4.80736,-3.83281 8.19559,-4.09928 l 2.10413,-0.16549 1.64866,-5.02708 c 0.90677,-2.7649 2.1963,-6.77225 2.86564,-8.90523 0.66933,-2.13298 1.45298,-4.17819 1.74144,-4.54491 0.63153,-0.80285 1.52181,-1.09775 4.48496,-1.48557 1.23692,-0.1619 3.32052,-0.46713 4.63021,-0.6783 1.30968,-0.21117 3.97238,-0.56737 5.91709,-0.79154 1.94472,-0.22418 6.84691,-0.88113 10.89375,-1.45988 4.04685,-0.57875 7.63493,-1.0541 7.97353,-1.05633 1.12101,-0.007 1.33464,-0.39548 1.83882,-3.34044 0.49196,-2.87356 0.67222,-7.24554 0.29816,-7.23128 -0.10914,0.004 -0.73422,0.91036 -1.38906,2.01378 -1.99823,3.36703 -4.97177,5.72166 -8.86354,7.01869 -1.53335,0.51103 -2.37572,0.6137 -4.8948,0.59658 -2.72875,-0.0186 -3.24898,-0.10229 -5.04182,-0.81163 -3.70539,-1.46604 -6.70855,-3.97536 -8.4494,-7.05998 -0.46573,-0.82522 -0.93823,-1.55692 -1.05,-1.626 -0.11177,-0.0691 -1.02314,0.0417 -2.02527,0.24629 -1.00212,0.20454 -3.2508,0.51665 -4.99705,0.69357 -1.74625,0.17693 -3.29718,0.41575 -3.44652,0.53071 -0.14934,0.11497 -0.43349,0.66305 -0.63145,1.21796 -1.05113,2.94653 -4.52714,6.95596 -7.60073,8.76713 -2.99179,1.76297 -4.79642,2.26716 -8.16505,2.28122 -5.22609,0.0218 -8.4609,-1.28552 -12.05162,-4.87055 -2.6299,-2.62574 -3.86516,-4.77029 -4.72078,-8.19581 -1.07072,-4.28665 -0.57575,-8.49195 1.49666,-12.71577 3.31245,-6.75117 10.45294,-10.6402 17.52219,-9.54337 6.55231,1.01662 11.8719,5.63932 14.00097,12.16675 0.30449,0.93354 0.55545,1.94557 0.55768,2.24896 0.009,1.2009 0.27956,1.28658 2.67038,0.84504 1.22119,-0.22552 3.00697,-0.48076 3.96839,-0.56717 l 1.74803,-0.15713 0.1614,-2.09295 c 0.30723,-3.98405 2.24181,-8.27537 5.04663,-11.19451 2.6198,-2.72657 5.95954,-4.38427 10.01397,-4.97048 1.91153,-0.27638 2.54322,-0.25963 4.45466,0.11806 2.78099,0.54952 5.43642,1.86376 7.62851,3.77554 0.92018,0.80252 1.73186,1.40031 1.80374,1.32843 0.41874,-0.41873 -1.52442,-6.19106 -3.47921,-10.3353 -2.99083,-6.34071 -6.16976,-10.9163 -10.86736,-15.64195 -4.75743,-4.78583 -8.64532,-7.58856 -14.50134,-10.45383 -8.60195,-4.20882 -16.95746,-5.85667 -26.82253,-5.28985 -7.87573,0.45252 -14.8494,2.27082 -21.9137,5.71372 -6.23909,3.04073 -10.94874,6.27609 -15.57232,10.69762 -1.94323,1.85831 -6.0964,6.70906 -7.60166,8.87846 -4.39722,6.33734 -8.28037,15.03106 -10.0423,22.48301 -1.79165,7.57765 -2.02931,17.30353 -0.62406,25.53886 1.35412,7.9357 5.23754,17.54239 9.8301,24.31741 7.29712,10.76481 16.28401,17.71352 27.91974,21.58766 3.70458,1.23345 9.29144,2.49781 9.6136,2.17565 0.10556,-0.10556 0.0422,-0.47164 -0.14072,-0.8135 -0.48177,-0.90019 -0.2743,-1.87393 0.42034,-1.97287 0.47201,-0.0672 1.01068,0.55644 3.04271,3.52287 5.37973,7.85353 9.38371,13.5256 14.88691,21.08892 1.02836,1.41333 2.87365,3.97317 4.10064,5.68854 1.22699,1.71538 2.96218,4.1309 3.85596,5.36782 0.89379,1.23693 3.15719,4.39209 5.02979,7.01146 11.03487,15.43552 12.06552,16.74808 13.86777,17.66094 1.67833,0.85009 2.65108,0.90233 4.14754,0.22274 z m 52.94292,-13.27963 c 2.42273,-1.17283 4.05186,-4.75839 5.3978,-11.88009 0.52019,-2.75248 0.4427,-8.80359 -0.13798,-10.77518 -1.09616,-3.72176 -4.25816,-4.87293 -6.78426,-2.46991 -1.95905,1.8636 -3.12951,5.30351 -3.78655,11.12842 -0.3077,2.72784 -0.32625,2.77963 -1.02471,2.86096 -0.57852,0.0674 -0.7438,-0.0465 -0.88515,-0.60968 -0.0956,-0.38088 -0.10544,-1.11385 -0.0219,-1.62884 0.18248,-1.12445 0.45707,-0.82848 -5.36511,-5.78288 -2.39344,-2.0367 -5.95098,-5.13185 -7.90564,-6.8781 -1.95466,-1.74625 -5.18177,-4.60375 -7.17135,-6.35 -3.73247,-3.27597 -9.83136,-8.70699 -11.21629,-9.98802 -0.43265,-0.40018 -0.97733,-0.72675 -1.21041,-0.72571 -0.36182,0.002 -5.01721,0.60702 -9.35346,1.21635 -0.73344,0.10306 -1.25677,0.31407 -1.25677,0.50672 0,0.18157 0.50601,0.77812 1.12448,1.32566 0.61846,0.54755 2.08308,1.90085 3.25471,3.00735 1.17164,1.1065 3.96194,3.67869 6.20068,5.71599 2.23874,2.03729 4.25669,3.89069 4.48434,4.11867 0.4307,0.43133 6.0872,5.49056 11.54134,10.32268 4.639,4.10996 18.11294,15.63373 19.03507,16.28001 1.7744,1.24361 3.37027,1.43381 5.08113,0.6056 z m -75.77961,-39.923 c 8.58905,-1.21465 15.75257,-2.26639 25.32244,-3.71782 3.71078,-0.5628 8.47328,-1.27256 10.58333,-1.57726 2.11006,-0.30469 5.14615,-0.77456 6.74688,-1.04416 6.40563,-0.9726 8.18059,-0.74899 9.39271,-8.12366 0,-0.19985 -0.62508,-0.64495 -1.38907,-0.98912 -3.37613,-1.52091 -5.20639,-5.26491 -4.4287,-9.05945 0.81723,-3.98754 3.47823,-7.2236 7.14068,-8.68384 0.65485,-0.26109 2.07519,-0.51737 3.15632,-0.56952 1.20666,-0.0582 2.04793,-0.22445 2.17868,-0.43052 0.11714,-0.18463 0.52715,-1.2882 0.91113,-2.45236 0.38398,-1.16417 1.26777,-3.72401 1.96399,-5.68855 4.61565,-13.02404 4.52539,-12.69128 3.54453,-13.06767 -0.21783,-0.0836 -3.69588,0.31771 -7.72899,0.89178 -4.03312,0.57408 -9.95232,1.40172 -13.15378,1.83921 -3.20146,0.43749 -8.02349,1.10248 -10.71563,1.47774 -2.69213,0.37527 -5.72823,0.78413 -6.74687,0.90857 -1.01865,0.12445 -4.70958,0.60296 -8.20208,1.06337 -3.4925,0.46041 -7.70428,0.99607 -9.3595,1.19036 -2.23965,0.26289 -3.13418,0.47831 -3.4969,0.84214 -0.26807,0.26888 -0.83628,1.61997 -1.26268,3.00242 -0.4264,1.38245 -1.39606,4.41854 -2.15481,6.74688 -0.56198,3.21289 -4.16786,7.14222 -0.36066,9.21972 2.97779,1.50372 7.24519,6.63472 5.13453,12.97728 -1.15738,3.47791 -3.97713,6.23997 -7.52238,7.36847 -1.10919,0.35307 -2.48523,0.52894 -4.39319,0.56148 l -2.77812,0.0474 -1.13388,3.30137 c -1.26488,3.68284 -1.32043,4.5102 -0.32133,4.7859 1.08202,0.29858 9.07335,-0.82016 9.07335,-0.82016 z m 56.6636,-17.33893 c 2.90848,-1.37594 4.85077,-4.46794 5.10446,-8.12601 0.31678,-4.56758 -2.13146,-7.21096 -6.02347,-6.50357 -3.79655,0.69005 -6.57785,3.4136 -7.56309,7.40606 -1.37661,5.57842 3.38601,9.63435 8.4821,7.22352 z m -68.57768,-35.84411 c 6.70582,-2.51095 11.06958,-9.57123 10.28103,-16.63407 -0.32086,-2.87386 -1.01768,-4.90525 -2.422,-7.06069 -2.98758,-4.58551 -7.46562,-7.07643 -12.69126,-7.05954 -6.76771,0.0219 -12.159,4.1552 -14.53042,11.14 -2.70771,7.97528 1.83124,17.25468 9.63563,19.69906 2.02765,0.63507 2.43917,0.67901 5.42396,0.57917 2.01929,-0.0675 3.19465,-0.24889 4.30306,-0.66393 z m -2.73843,-5.79551 c -2.20315,-0.71513 -3.4394,-2.58121 -3.6249,-5.47161 -0.11088,-1.72771 -0.0436,-2.11631 0.59123,-3.41382 0.83411,-1.70485 1.91452,-2.62081 3.63372,-3.08063 1.48901,-0.39825 2.93303,-0.0537 4.1829,0.99796 2.91702,2.45451 2.56197,8.16825 -0.6441,10.36508 -0.95096,0.65161 -3.04793,0.95714 -4.13885,0.60302 z m 42.65082,2.08881 c 6.41903,-1.19798 11.73577,-8.39137 11.73241,-15.8736 -7.8e-4,-1.74169 -0.15137,-2.9604 -0.4904,-3.96875 -1.48575,-4.41888 -4.35863,-7.90083 -8.00616,-9.70354 -1.94452,-0.96103 -2.19596,-1.01634 -5.02932,-1.10628 -3.4316,-0.10894 -5.60952,0.39536 -7.89386,1.82782 -4.55406,2.85574 -7.21102,7.42393 -7.47629,12.85418 -0.24142,4.94207 1.03008,8.52985 4.20894,11.87636 3.47738,3.66078 7.85781,5.04504 12.95468,4.09381 z m -7.9674,-5.57342 c -0.94985,-0.399 -1.8197,-1.27876 -2.46689,-2.49497 -0.73457,-1.38042 -0.76869,-4.32276 -0.066,-5.68854 1.09891,-2.13581 2.68864,-3.23074 4.66843,-3.2154 2.98665,0.0231 4.83782,2.25728 4.8565,5.86123 0.0183,3.52907 -1.68302,5.60346 -4.70886,5.74149 -0.89204,0.0407 -1.91948,-0.051 -2.28321,-0.20381 z m -16.93347,-2.60807 c 5.60308,-0.88955 6.08542,-1.04647 6.08542,-1.97979 0,-0.35794 -0.1228,-0.97376 -0.27288,-1.3685 l -0.27287,-0.71771 -2.30681,0.16879 c -1.26875,0.0928 -3.07946,0.37975 -4.0238,0.63757 l -1.71699,0.46877 -0.19602,1.31969 c -0.22022,1.48265 -0.0947,2.09588 0.39108,1.91114 0.18067,-0.0687 1.22146,-0.26669 2.31287,-0.43996 z m 40.43407,-1.66582 c 0.907,-1.81023 1.36342,-3.80029 1.36696,-5.96014 0.003,-1.54795 -0.0751,-1.91823 -0.40224,-1.91823 -0.56495,0 -2.31856,0.7566 -2.52398,1.08897 -0.17713,0.28661 -0.0683,4.37247 0.181,6.79746 0.17432,1.69544 0.52576,1.69339 1.37826,-0.008 z M 313.44208,92.962656 c 28.49755,-0.03711 75.05099,-0.03711 103.45208,2e-6 28.40109,0.03711 5.08491,0.06748 -51.81373,0.06748 -56.89865,-10e-7 -80.13591,-0.03037 -51.63835,-0.06748 z"
         id="path8"
         sodipodi:nodetypes="sssscsssscssssssscssssssscssssssssssssssssscssssssssssscssscsssscssssssssssssscsssssscsssssssscsscssssssscscsscssscsssssssssscsscsssssssssssssssssscsssssssccssssssscsssscsssssssssscssssssssssssssssssssssssscsscssssssssssscssssscssssssssssscsccssccsssccscsssscssssssssss" /></g></g></svg>
