<?xml version="1.0" encoding="UTF-8" standalone="no"?>
<!-- Created with Inkscape (http://www.inkscape.org/) -->

<svg
   width="210mm"
   height="297mm"
   viewBox="0 0 210 297"
   version="1.1"
   id="svg1"
   xml:space="preserve"
   inkscape:version="1.4.4 (dcaf3e7d9e, 2026-05-05)"
   sodipodi:docname="filobelo_waving.svg"
   xmlns:inkscape="http://www.inkscape.org/namespaces/inkscape"
   xmlns:sodipodi="http://sodipodi.sourceforge.net/DTD/sodipodi-0.dtd"
   xmlns="http://www.w3.org/2000/svg"
   xmlns:svg="http://www.w3.org/2000/svg"><sodipodi:namedview
     id="namedview1"
     pagecolor="#ffffff"
     bordercolor="#000000"
     borderopacity="0.25"
     inkscape:showpageshadow="2"
     inkscape:pageopacity="0.0"
     inkscape:pagecheckerboard="0"
     inkscape:deskcolor="#d1d1d1"
     inkscape:document-units="mm"
     inkscape:zoom="0.58252285"
     inkscape:cx="763.06019"
     inkscape:cy="643.75157"
     inkscape:window-width="1536"
     inkscape:window-height="795"
     inkscape:window-x="0"
     inkscape:window-y="0"
     inkscape:window-maximized="1"
     inkscape:current-layer="layer1" /><defs
     id="defs1" /><g
     inkscape:label="Layer 1"
     inkscape:groupmode="layer"
     id="layer1"><g
       id="g4"
       transform="translate(65.844555,7.7544663)"><path
         style="fill:#61dfe6"
         d="m 36.645856,207.75394 c -2.265225,-0.52123 -3.854004,-1.188 -4.720411,-1.98101 -0.900809,-0.82449 -0.917212,-0.46577 0.448847,-9.8161 1.591348,-10.89239 2.838393,-24.0951 3.489643,-36.9455 l 0.176146,-3.47571 -2.547627,-1.20682 c -6.23307,-2.95264 -11.991266,-8.55227 -15.068194,-14.65328 -0.841539,-1.66862 -0.851275,-1.86005 -0.133472,-2.62411 0.592197,-0.63037 0.519938,-1.41958 -0.129975,-1.41958 -0.73322,0 -4.286421,4.12564 -5.405112,6.27591 -2.019601,3.88192 -3.2040299,9.64731 -2.8212039,13.73263 0.1567659,1.67293 0.1149049,2.04894 -0.2762131,2.48112 -0.6946486,0.76758 -0.3312488,1.22826 1.120836,1.42089 5.095667,0.67596 7.185526,7.32123 3.438898,10.93491 -1.692666,1.6326 -2.675586,2.05009 -4.8242446,2.04907 -2.1407401,-0.001 -3.5767722,-0.61035 -4.770128,-2.02408 -2.2015152,-2.60805 -2.2894431,-5.9032 -0.2295844,-8.60381 0.6609551,-0.86656 0.667616,-0.92111 0.3894341,-3.18925 -1.3395302,-10.92176 1.5175457,-19.9454 8.4561339,-26.7074 1.158998,-1.12951 2.107269,-2.22396 2.107269,-2.43213 0,-0.20817 -0.168976,-0.56646 -0.375503,-0.79619 -0.554609,-0.61695 -1.043122,-5.52442 -0.871223,-8.75209 0.472926,-8.87988 4.045851,-17.25533 9.976073,-23.385335 3.952292,-4.085441 8.153931,-6.775494 13.23107,-8.47105 14.459138,-4.828756 29.796039,0.600314 38.419831,13.600135 2.362045,3.56064 4.707251,9.14831 4.707251,11.21548 0,0.42121 0.181646,0.77708 0.449006,0.87968 0.645153,0.24757 3.89237,-3.32198 5.367695,-5.90052 2.565192,-4.48338 3.755678,-8.583418 4.25705,-14.661304 0.162056,-1.964531 0.417785,-3.803032 0.568287,-4.085557 0.225364,-0.423057 0.139296,-0.622403 -0.487845,-1.129931 -3.62422,-2.93298 -4.094711,-3.673115 -4.277258,-6.728597 -0.104254,-1.74503 -0.03151,-2.216489 0.53071,-3.439584 0.937847,-2.040258 1.864154,-3.008071 3.783371,-3.952899 1.505015,-0.740916 1.890041,-0.821128 3.489393,-0.726937 2.977795,0.17537 5.035489,1.526818 6.489274,4.262008 0.84503,1.589875 0.85256,5.128617 0.0143,6.704189 -1.368672,2.572405 -3.376004,3.946542 -6.274897,4.295535 -1.917993,0.230905 -2.1443,0.347248 -1.902277,0.977951 0.135773,0.353818 0.490067,0.416384 1.950915,0.344516 l 1.785014,-0.08782 -0.07236,3.437206 c -0.0931,4.422477 -0.638092,7.689404 -1.937866,11.616524 -2.096457,6.33422 -5.684428,11.28159 -11.112431,15.32267 l -0.951826,0.70863 -0.160888,3.10823 c -0.368013,7.10973 -2.204958,12.81877 -5.935257,18.44618 -2.054838,3.09987 -6.000888,7.17712 -8.5684,8.85329 l -1.751531,1.14347 -0.157135,22.78681 c -0.08643,12.53275 -0.260864,23.34735 -0.387644,24.03244 -0.126779,0.68509 -0.154683,1.3683 -0.06201,1.51826 0.09267,0.14995 0.78836,0.39019 1.545967,0.53387 3.377804,0.64058 5.60659,2.31461 5.60659,4.21107 0,1.64772 -1.217421,2.40238 -4.200854,2.60403 -2.27601,0.15383 -5.860744,-0.4159 -7.382629,-1.17333 -0.522542,-0.26007 -1.172642,-0.77788 -1.444667,-1.15068 -0.469108,-0.6429 -0.480205,-0.99053 -0.215384,-6.74687 0.689179,-14.98046 1.067029,-40.71493 0.636092,-43.32273 -0.13637,-0.82524 -0.264498,-0.99146 -0.713846,-0.92604 -0.33245,0.0484 -0.607612,0.33964 -0.700256,0.74118 -0.130321,0.56484 -0.421207,0.72886 -1.991496,1.12293 -3.105875,0.77943 -6.159971,1.07397 -9.38696,0.90528 -2.920296,-0.15265 -3.066412,-0.18853 -3.631901,-0.89187 -0.532769,-0.66263 -0.628559,-0.69344 -1.000261,-0.32174 -0.323663,0.32366 -0.465174,1.50438 -0.66553,5.55292 -0.609603,12.3181 -1.945938,26.42591 -3.344137,35.30435 -0.649732,4.12574 -0.811597,3.72178 1.791571,4.47114 0.816264,0.23497 1.971305,0.78013 2.566758,1.21148 1.998914,1.448 2.11134,3.81664 0.224213,4.7238 -1.077184,0.51781 -4.290364,0.62273 -6.127171,0.20007 z m 19.008909,-77.573 c 2.139781,-0.7291 4.676798,-3.80953 3.137496,-3.80953 -0.261509,0 -0.936186,0.47182 -1.499283,1.04848 -1.102604,1.12917 -2.830749,1.86551 -4.356234,1.85613 -1.077841,-0.007 -3.052495,-0.82833 -3.898013,-1.62206 -0.608898,-0.5716 -1.42695,-0.57922 -1.614806,-0.015 -0.170791,0.51293 1.621384,2.06873 2.907098,2.52367 1.50463,0.53241 3.791928,0.54029 5.323742,0.0183 z m -10.630802,-9.53398 c 1.151392,-1.09446 1.543768,-2.00224 1.543768,-3.57158 0,-3.91265 -3.673568,-6.39601 -6.191327,-4.18539 -3.338631,2.93136 -1.426951,9.02566 2.705709,8.62561 0.797801,-0.0772 1.386144,-0.34041 1.94185,-0.86864 z m 18.958121,-1.16276 c 2.540115,-1.54866 2.416663,-6.76955 -0.196171,-8.29626 -1.604077,-0.93729 -3.919879,-0.45344 -4.88585,1.02082 -0.245436,0.37458 -0.572149,1.30797 -0.726027,2.07418 -0.383786,1.91101 0.0516,3.43571 1.352577,4.73669 0.885394,0.8854 1.151407,1.00167 2.289678,1.00079 0.825613,-6.3e-4 1.603014,-0.19311 2.165793,-0.53622 z m -52.601937,34.99919 c 0.722038,-14.86701 0.0029,1.3474 0,0 z M 32.056986,88.800136 c -176.434266,-123.016716 -176.434266,-123.016716 0,0 z m 65.579218,8.334819 c -242.013484,-131.351535 -242.013484,-131.351535 0,0 z M 102.78069,79.94066 c -247.15797,-114.15724 -247.15797,-114.15724 0,0 z"
         id="path6"
         sodipodi:nodetypes="sssscssssssssssssssssssssssssssssssssssscssscssscsssssssssssssssssssssssssscsssssssssssssssssssssssss" /><path
         style="fill:#203031"
         d="m 35.2216,208.89395 c -2.292083,-0.61545 -3.334754,-1.10511 -4.324315,-2.03076 -1.296003,-1.21231 -1.366986,-1.94889 -0.622189,-6.45638 1.064931,-6.44493 3.304971,-21.8511 4.183422,-44.00519 -4.349383,-1.92714 -8.162048,-4.65166 -11.504766,-8.03068 -2.08766,-2.16594 -5.177895,-6.41778 -6.037769,-8.30734 -0.182109,-0.40018 -0.430312,-0.72761 -0.551561,-0.72761 -0.3876,0 -1.853219,2.18872 -2.758084,4.11884 -1.493607,3.18595 -1.991257,5.39214 -2.153289,9.54598 -0.184267,4.72385 -0.114594,5.00898 1.380583,5.64989 4.072035,1.74547 5.937172,6.71532 4.003474,10.66765 -0.858619,1.75496 -2.376291,3.18443 -4.331035,4.07934 -1.255683,0.57487 -1.719067,0.64731 -3.4713362,0.54262 -2.3607967,-0.14105 -3.7597859,-0.75543 -5.3569376,-2.35258 -2.6458658,-2.64587 -3.00881019,-6.75971 -0.8739261,-9.90564 l 0.6978335,-1.02832 -0.3330458,-3.26646 c -0.6992674,-6.8583 0.5208866,-13.53715 3.4911287,-19.10965 1.3085613,-2.455 2.7213391,-4.36417 4.9432835,-6.68016 l 1.712875,-1.78536 -0.368934,-2.71255 c -1.560064,-11.47022 2.099527,-23.14516 9.788502,-31.227578 8.766853,-9.215451 21.278466,-12.94193 33.454851,-9.964248 5.933479,1.451007 11.483031,4.688632 16.156797,9.425924 4.39957,4.459369 6.800653,8.503882 9.283227,15.637152 0.219097,0.62954 1.052095,-0.11462 2.458352,-2.19619 0.748665,-1.10818 1.712917,-2.75182 2.142782,-3.65252 1.661086,-3.48049 2.934254,-9.544436 2.933994,-13.974256 l -1.3e-4,-2.215002 -1.306547,-1.125171 c -0.863455,-0.743588 -1.601377,-1.724052 -2.175908,-2.891091 -4.867949,-9.888198 10.689362,-19.712023 16.257578,-7.813 0.68719,1.46849 0.81606,2.060928 0.81445,3.744185 -0.003,2.792685 -0.92205,4.800634 -3.133984,6.844728 l -1.628499,1.504932 -0.319717,4.497916 c -0.577503,8.124559 -3.194593,19.933299 -12.843004,26.862269 l -1.173245,0.84256 c -0.3466,12.19115 -4.842633,22.41821 -14.295097,30.27147 l -2.231974,1.68354 -0.05201,18.85341 c -0.02861,10.36938 -0.149135,20.78481 -0.267843,23.1454 -0.180579,3.59094 -0.155089,4.31127 0.156051,4.41 0.204537,0.0649 1.077108,0.32918 1.939047,0.58728 5.355336,1.60362 6.625065,7.30579 1.936833,8.69805 -2.800957,0.83179 -8.529765,0.36521 -10.986804,-0.89481 -2.296507,-1.17771 -2.660857,-2.2414 -2.394556,-6.99071 0.746562,-13.31449 1.281991,-42.53279 0.790276,-43.12527 -0.613858,-0.73964 -4.908343,1.34142 -12.506754,0.94198 l -2.543843,-0.13373 -0.182493,3.5399 c -0.46533,9.02627 -1.46381,20.09158 -2.683023,29.73366 -0.368013,2.91041 -0.737477,5.83612 -0.821031,6.50157 l -0.151916,1.2099 1.684949,0.61076 c 2.029012,0.73547 3.997272,2.54096 4.41187,4.04704 0.551465,2.00326 -0.679755,4.09576 -2.74777,4.66993 -1.633715,0.45359 -5.293811,0.32377 -7.488823,-0.26562 z m 7.551427,-1.34008 c 1.887127,-0.90716 1.774701,-3.2758 -0.224213,-4.7238 -0.595453,-0.43135 -1.750494,-0.97651 -2.566758,-1.21148 -2.603168,-0.74936 -2.441303,-0.3454 -1.791571,-4.47114 1.398199,-8.87844 2.734534,-22.98625 3.344137,-35.30435 0.200356,-4.04854 0.341867,-5.22926 0.66553,-5.55292 0.371702,-0.3717 0.467492,-0.34089 1.000261,0.32174 0.565489,0.70334 0.711605,0.73922 3.631901,0.89187 3.226989,0.16869 6.281085,-0.12585 9.38696,-0.90528 1.570289,-0.39407 1.861175,-0.55809 1.991496,-1.12293 0.09264,-0.40154 0.367806,-0.69279 0.700256,-0.74118 0.449348,-0.0654 0.577476,0.1008 0.713846,0.92604 0.430937,2.6078 0.05309,28.34227 -0.636092,43.32273 -0.264821,5.75634 -0.253724,6.10397 0.215384,6.74687 0.272025,0.3728 0.922125,0.89061 1.444667,1.15068 1.521885,0.75743 5.106619,1.32716 7.382629,1.17333 2.983433,-0.20165 4.200854,-0.95631 4.200854,-2.60403 0,-1.89646 -2.228786,-3.57049 -5.60659,-4.21107 -0.757607,-0.14368 -1.453292,-0.38392 -1.545967,-0.53387 -0.09267,-0.14996 -0.06477,-0.83317 0.06201,-1.51826 0.12678,-0.68509 0.301219,-11.49969 0.387644,-24.03244 l 0.157135,-22.78681 1.751531,-1.14347 c 2.567512,-1.67617 6.513562,-5.75342 8.5684,-8.85329 3.730299,-5.62741 5.567244,-11.33645 5.935257,-18.44618 l 0.160888,-3.10823 0.951826,-0.70863 c 5.428003,-4.04108 9.015974,-8.98845 11.112431,-15.32267 1.299774,-3.92712 1.844761,-7.194042 1.937866,-11.616519 l 0.07236,-3.437206 -1.785014,0.08782 c -1.460848,0.07187 -1.815142,0.0093 -1.950915,-0.344516 -0.242023,-0.630703 -0.01572,-0.747046 1.902277,-0.977951 2.898893,-0.348993 4.906225,-1.72313 6.274897,-4.295535 0.83829,-1.575572 0.83076,-5.114314 -0.0143,-6.704189 -1.453785,-2.73519 -3.511479,-4.086638 -6.489274,-4.262008 -1.599352,-0.09419 -1.984378,-0.01398 -3.489393,0.726937 -1.919217,0.944828 -2.845524,1.912641 -3.783371,3.952899 -0.56222,1.223095 -0.634964,1.694554 -0.53071,3.439584 0.182547,3.055482 0.653038,3.795617 4.277258,6.728597 0.627141,0.507528 0.713209,0.706874 0.487845,1.129931 -0.150502,0.282525 -0.406231,2.121026 -0.568287,4.085557 -0.501372,6.077886 -1.691858,10.177919 -4.25705,14.661299 -1.475325,2.57854 -4.722542,6.14809 -5.367695,5.90052 -0.26736,-0.1026 -0.449006,-0.45847 -0.449006,-0.87968 0,-2.06717 -2.345206,-7.65484 -4.707251,-11.21548 C 69.288794,92.059753 59.00585,86.424473 47.726868,86.420394 29.803878,86.413912 15.107964,101.0986 14.100172,120.02141 c -0.171899,3.22767 0.316614,8.13514 0.871223,8.75209 0.206527,0.22973 0.375503,0.58802 0.375503,0.79619 0,0.20817 -0.948271,1.30262 -2.107269,2.43213 -4.4203682,4.30787 -7.2789012,9.7029 -8.3325289,15.72632 -0.4726216,2.7019 -0.5286408,7.67865 -0.123605,10.98108 0.2781819,2.26814 0.271521,2.32269 -0.3894341,3.18925 -2.0598587,2.70061 -1.9719308,5.99576 0.2295844,8.60381 1.1933558,1.41373 2.6293879,2.02307 4.770128,2.02408 2.1486586,10e-4 3.1315786,-0.41647 4.8242446,-2.04907 3.746628,-3.61368 1.656769,-10.25895 -3.438898,-10.93491 -1.4520848,-0.19263 -1.8154846,-0.65331 -1.120836,-1.42089 0.391118,-0.43218 0.432979,-0.80819 0.2762131,-2.48112 -0.382826,-4.08532 0.8016029,-9.85071 2.8212039,-13.73263 1.118691,-2.15027 4.671892,-6.27591 5.405112,-6.27591 0.649913,0 0.722172,0.78921 0.129975,1.41958 -0.717803,0.76406 -0.708067,0.95549 0.133472,2.62411 3.076928,6.10101 8.835124,11.70064 15.068194,14.65328 l 2.547627,1.20682 -0.176146,3.47571 c -0.65125,12.8504 -1.898295,26.05311 -3.489643,36.9455 -1.366059,9.35033 -1.349656,8.99161 -0.448847,9.8161 2.081519,1.90519 8.423211,2.94635 10.847582,1.78094 z m 7.557996,-77.39128 c -1.285714,-0.45494 -3.077889,-2.01074 -2.907098,-2.52367 0.187856,-0.56418 1.005908,-0.55656 1.614806,0.015 0.845518,0.79373 2.820172,1.61543 3.898013,1.62206 1.525485,0.009 3.25363,-0.72696 4.356234,-1.85613 0.563097,-0.57666 1.237774,-1.04848 1.499283,-1.04848 1.539302,0 -0.997715,3.08043 -3.137496,3.80953 -1.531814,0.52194 -3.819112,0.51406 -5.323742,-0.0183 z m -9.280056,-8.98777 c -2.810303,-1.43145 -3.18859,-6.07748 -0.674563,-8.28483 2.517759,-2.21062 6.191327,0.27274 6.191327,4.18539 0,1.56934 -0.392376,2.47712 -1.543768,3.57158 -1.00963,0.95971 -2.687511,1.18263 -3.972996,0.52786 z m 18.475646,-2.15519 c -1.300979,-1.30098 -1.736363,-2.82568 -1.352577,-4.73669 0.484311,-2.41156 1.726727,-3.5941 3.776084,-3.5941 2.10935,0 3.655937,1.77153 3.877333,4.44127 0.237196,2.86027 -1.426265,4.88833 -4.011162,4.89031 -1.138271,8.8e-4 -1.404284,-0.11539 -2.289678,-1.00079 z"
         id="path5"
         sodipodi:nodetypes="ssscssssssssssscssscsssssssscssscscsscscssssssssscssscssssssssssssssssssssssssscssscssscssssssssssssssssssssssssssssssssssscssssssscssssssssssssssss" /></g></g></svg>
