<?xml version="1.0" encoding="UTF-8" standalone="no"?>
<!-- Created with Inkscape (http://www.inkscape.org/) -->

<svg
   width="210mm"
   height="297mm"
   viewBox="0 0 210 297"
   version="1.1"
   id="svg1"
   xml:space="preserve"
   inkscape:export-filename="filobelo_proud.svg"
   inkscape:export-xdpi="96"
   inkscape:export-ydpi="96"
   inkscape:version="1.4.4 (dcaf3e7d9e, 2026-05-05)"
   sodipodi:docname="filobelo_proud.svg"
   xmlns:inkscape="http://www.inkscape.org/namespaces/inkscape"
   xmlns:sodipodi="http://sodipodi.sourceforge.net/DTD/sodipodi-0.dtd"
   xmlns="http://www.w3.org/2000/svg"
   xmlns:svg="http://www.w3.org/2000/svg"><sodipodi:namedview
     id="namedview1"
     pagecolor="#ffffff"
     bordercolor="#000000"
     borderopacity="0.25"
     inkscape:showpageshadow="2"
     inkscape:pageopacity="0.0"
     inkscape:pagecheckerboard="0"
     inkscape:deskcolor="#d1d1d1"
     inkscape:document-units="mm"
     inkscape:zoom="0.6230575"
     inkscape:cx="456.61917"
     inkscape:cy="359.51738"
     inkscape:window-width="1536"
     inkscape:window-height="795"
     inkscape:window-x="0"
     inkscape:window-y="0"
     inkscape:window-maximized="1"
     inkscape:current-layer="layer1" /><defs
     id="defs1" /><g
     inkscape:label="Layer 1"
     inkscape:groupmode="layer"
     id="layer1"><g
       id="g12"
       transform="translate(14.904418,-39.272934)"><path
         style="fill:#60dde4"
         d="m 101.53651,218.39547 c -2.248085,-0.49267 -4.215342,-1.37563 -4.843139,-2.17374 -0.44011,-0.55951 -0.518977,-1.06003 -0.504917,-3.20439 0.02608,-3.97679 -5.571966,-46.15892 -6.212846,-46.81478 -0.28271,-0.28932 -0.814096,-0.29607 -2.959059,-0.0376 -2.848233,0.34321 -6.370629,0.18959 -9.450757,-0.41219 -2.647524,-0.51725 -2.635881,-0.53668 -3.036712,5.06716 -1.106834,15.47417 -1.898227,31.80592 -1.899776,39.20512 -0.0012,5.57819 -0.0075,5.6407 -0.629855,6.2631 -0.788668,0.78867 -3.485931,1.63358 -6.470518,2.02687 -4.812059,0.6341 -7.418104,-0.87415 -6.351691,-3.67606 0.565042,-1.48459 2.466008,-2.60136 5.937691,-3.48822 l 1.085765,-0.27736 0.182943,-4.82888 c 0.394345,-10.40892 0.946355,-20.77337 2.023658,-37.99588 0.157982,-2.52561 0.230134,-4.74083 0.160337,-4.92272 -0.0698,-0.18189 -0.762317,-0.68993 -1.538935,-1.12899 -1.93302,-1.09282 -5.341853,-3.67987 -7.110858,-5.39659 -2.764838,-2.68314 -6.158193,-8.07342 -8.052888,-12.79188 -2.079306,-5.1782 -2.928755,-10.11994 -2.703522,-15.72797 0.540667,-13.46195 7.946944,-25.53682 19.23336,-31.357223 7.773185,-4.008628 16.743002,-4.959119 24.841206,-2.632311 11.069983,3.180673 19.910193,11.833704 23.713833,23.211744 1.15841,3.46523 1.71881,6.63513 1.90361,10.7679 l 0.14843,3.31953 -0.68878,0.45131 c -0.872,0.57135 -0.70351,1.00158 0.69552,1.776 3.46421,1.91758 7.91474,6.09702 9.17281,8.61406 0.76494,1.53043 1.02787,4.3197 0.5451,5.78252 -0.78511,2.3789 -3.65037,4.89005 -8.14267,7.13631 -1.34607,0.67306 -2.44739,1.32705 -2.44739,1.45329 0,0.12624 0.17859,0.37775 0.39687,0.55891 0.84617,0.70225 0.29498,3.4637 -0.98157,4.91761 -2.82994,3.22313 -7.75367,2.5639 -9.80567,-1.31288 -0.88909,-1.67971 -0.83116,-4.64946 0.12232,-6.27134 0.81973,-1.39436 2.31705,-2.48195 4.05804,-2.94759 1.04896,-0.28056 1.37951,-0.25972 2.45434,0.15475 1.85636,0.71583 2.2622,0.68876 2.42554,-0.16176 0.10919,-0.5686 0.57841,-0.98289 2.15979,-1.90699 2.22003,-1.29731 3.93284,-3.06188 3.93284,-4.0517 0,-0.98734 -1.51156,-2.85967 -3.56069,-4.41051 -2.61313,-1.9777 -3.01095,-2.15886 -3.54778,-1.61557 -0.40042,0.40523 -0.36661,0.49117 0.46029,1.17006 0.73534,0.60372 0.85782,0.84569 0.69571,1.37442 -0.44393,1.44796 -1.5606,3.9301 -2.57398,5.72148 -1.03669,1.83259 -1.12649,1.91527 -2.3697,2.18189 -1.90053,0.40759 -3.17341,1.14943 -4.49566,2.62009 -1.18788,1.32121 -1.63672,2.3606 -1.95965,4.53804 -0.1077,0.72622 -0.396,1.37546 -0.73912,1.66451 -1.25618,1.0582 -3.59816,2.56195 -5.721923,3.67397 l -1.652976,1.71679 -0.552572,1.0314 c 0.327664,-0.6116 0.691317,6.7508 4.150261,33.44079 l 1.62716,12.5556 1.98438,0.67373 c 2.29816,0.78028 3.70108,1.51842 4.25539,2.59033 0.48258,0.9332 0.35996,2.58937 -0.10872,3.20661 -0.92929,1.22392 -3.93149,1.40712 -7.25289,0.67924 z M 84.137499,135.89442 c 1.575126,-0.74464 2.914977,-2.07075 2.688506,-2.66092 -0.202976,-0.52895 -0.807199,-0.52921 -1.245954,-5.5e-4 -0.188118,0.22667 -0.878034,0.72625 -1.533147,1.11017 -0.955187,0.55978 -1.535837,0.69935 -2.931509,0.70468 -1.927654,0.007 -3.031764,-0.43142 -4.434936,-1.76242 -0.907082,-0.86043 -1.671085,-0.84544 -1.671085,0.0328 0,0.65203 1.33662,1.78707 3.042709,2.58384 1.826616,0.85305 4.271364,0.85 6.085416,-0.008 z m 8.051621,-9.41838 c 1.042353,-0.29894 2.262232,-1.37252 2.861985,-2.51875 0.657204,-1.25603 0.566951,-3.49614 -0.195071,-4.84172 -0.931779,-1.64534 -2.059151,-2.26222 -3.861178,-2.11278 -1.625386,0.13479 -2.797808,0.98912 -3.45036,2.51423 -0.472506,1.10432 -0.467541,3.60745 0.009,4.51955 0.671434,1.28523 2.388432,2.61428 3.464951,2.68207 0.146482,0.009 0.673301,-0.0999 1.170708,-0.2426 z M 73.557839,125.7899 c 2.957276,-1.40332 3.344459,-6.67825 0.634879,-8.64952 -1.915624,-1.39365 -4.494459,-0.59327 -5.666486,1.75868 -2.047185,4.10817 1.283422,8.66947 5.031607,6.89084 z m -21.477192,37.21034 c -1.432785,-0.35115 -2.569327,-1.1776 -3.493996,-2.54072 -0.886448,-1.30678 -0.889804,-1.3235 -0.750158,-3.73744 l 0.140274,-2.42479 -2.027967,-1.18424 c -2.839186,-1.65796 -5.485939,-3.99516 -6.623998,-5.84929 -0.842484,-1.37258 -0.97115,-1.81048 -1.049507,-3.57188 -0.111423,-2.50468 0.499068,-4.27374 2.219094,-6.43039 1.561427,-1.9578 6.412998,-5.65307 6.841906,-5.21124 0.05826,0.06 0.29569,1.39133 0.527614,2.95848 l 0.421681,2.84936 -1.846798,1.74218 c -2.099967,1.981 -2.592561,3.06444 -2.016422,4.43506 0.414656,0.98645 2.079653,2.5602 4.313768,4.07735 0.898793,0.61036 2.307165,1.47259 2.397374,1.61855 0.09021,0.14596 -0.765617,0.3062 -1.169494,0.6536 -0.635658,0.54677 -0.686225,0.68959 -0.376357,1.06296 0.327441,0.39454 0.45481,0.37457 1.493724,-0.23428 1.762208,-1.03272 2.191259,-0.90718 3.508988,1.02674 0.629497,0.92386 1.922054,2.53165 2.87235,3.57286 1.576102,1.7269 1.713475,1.96953 1.56455,2.76337 -0.539687,2.87678 -4.07431,5.1277 -6.946626,4.42376 z m 78.721033,-17.45531 c -200.868143,-99.53765 -200.868143,-99.53765 0,0 z m -84.4996,10.55922 c -0.128516,-0.0894 3.080035,-5.64979 0,0 z m 68.92396,-6.34159 c -185.292503,-103.75528 -185.292503,-103.75528 0,0 z m -65.354968,-7.14119 c -119.937535,-96.61409 -119.937535,-96.61409 0,0 z m -0.547225,-0.75541 c -119.39031,-95.85868 -119.39031,-95.85868 0,0 z M 120.3584,131.358 l -0.027,-1.31529 c 0,0 0.19259,7.74486 0.027,1.31529 z"
         id="path13"
         sodipodi:nodetypes="sssssssssssscssssssssssscssssssssssssssssssssssssscsscssssscssscssscccssssccccsssssscsssssscsssssssssssssssssssssscsc" /><path
         style="fill:#000000;fill-opacity:1"
         d="m 100.71956,219.71369 c -0.920799,-0.20158 -2.409081,-0.75517 -3.307289,-1.2302 -1.303257,-0.68926 -1.756569,-1.10418 -2.244381,-2.05433 -0.265523,-0.51718 -3.062131,-34.51152 -5.995078,-49.12691 -0.08451,-0.0845 -2.579581,0.33428 -5.234773,0.31099 -2.655193,-0.0233 -5.309217,-0.26784 -6.057593,-0.38367 -1.350706,-0.20906 -1.492497,-0.4011 -1.641309,0.35441 -0.161301,0.81893 -0.462582,5.7245 -1.085939,16.8306 -0.81118,14.45246 -0.988002,18.55413 -1.066471,24.73854 -0.04431,3.4925 -0.09297,6.49469 -0.108128,6.67152 -0.06518,0.7605 -1.717986,2.19262 -3.152373,2.73147 -4.753814,1.78586 -10.631265,1.69054 -12.384137,-0.20084 -2.518498,-2.7175 -0.243392,-6.69485 4.645985,-8.12212 0.792086,-0.23122 1.534403,-0.56881 1.649594,-0.75021 0.11519,-0.1814 0.211484,-1.40138 0.213986,-2.71107 0.0061,-3.17184 0.961699,-23.11771 1.457812,-30.42708 0.217294,-3.20146 0.472703,-7.32181 0.567575,-9.15633 l 0.172495,-3.3355 -1.95706,-1.25908 c -1.076383,-0.69249 -2.453348,-1.66206 -3.059922,-2.1546 -1.324599,-1.07559 -1.824814,-1.12529 -2.055967,-0.20431 -0.09542,0.38018 -0.792934,1.30831 -1.550037,2.06253 -4.872688,4.8541 -12.904679,1.23603 -12.273,-5.52848 l 0.15282,-1.6365 -2.433394,-1.56173 c -2.978893,-1.91182 -5.347996,-4.26123 -6.400697,-6.34748 -0.704897,-1.39696 -0.792465,-1.8335 -0.79375,-3.957 -0.0013,-2.17663 0.07769,-2.54942 0.897198,-4.23334 1.15521,-2.3737 4.830123,-6.0795 7.734482,-7.79947 l 2.010212,-1.19046 0.295088,-3.43975 c 1.518689,-17.70286 13.403276,-31.400445 30.105329,-34.697895 3.476887,-0.686435 9.677409,-0.615886 13.328045,0.151645 13.555957,2.850082 24.164497,13.13508 27.877337,27.02713 0.92319,3.45424 1.25839,6.03317 1.31266,10.09935 l 0.0465,3.4866 1.71979,1.1985 c 2.33854,1.6297 5.33657,4.51961 6.48745,6.25348 1.1547,1.73963 1.97921,4.04103 1.97921,5.52442 0,3.77896 -2.73017,7.27846 -7.73782,9.91822 -1.20123,0.63322 -3.6507,1.4928 -3.16308,1.40169 0.0763,-0.0143 0.73084,0.65208 0.69372,1.53607 -0.32387,7.71289 -10.1614,9.43321 -13.62833,3.29017 -0.45169,-0.80035 -0.94031,-1.45517 -1.08583,-1.45517 -0.14551,0 -1.23547,0.6416 -2.42213,1.42578 -1.18666,0.78418 -2.78265,1.73868 -3.54663,2.12112 -1.152688,0.57702 -1.389063,0.81497 -1.389063,1.39833 0,0.73728 1.411091,11.93518 3.861223,30.64122 0.80054,6.11188 1.53917,11.75456 1.64142,12.53929 0.11007,0.84479 0.34779,1.51154 0.58277,1.63454 0.21828,0.11426 1.18133,0.55828 2.14011,0.98672 2.99871,1.33999 4.5219,3.46628 4.09879,5.72167 -0.23975,1.27796 -1.47754,2.6353 -2.75116,3.01689 -1.36024,0.40754 -5.04251,0.35118 -7.1463,-0.10937 z m 6.7488,-1.30296 c 1.20997,-0.50556 1.65321,-1.08981 1.66385,-2.19314 0.0189,-1.96187 -1.2851,-3.21034 -4.4895,-4.2983 l -1.98438,-0.67373 -1.62716,-12.5556 c -3.458944,-26.68999 -4.108287,-31.92208 -4.150261,-33.44079 l 0.325531,-1.4571 1.880017,-1.29109 c 1.976153,-1.35711 4.465743,-2.61577 5.721923,-3.67397 0.34312,-0.28905 0.63142,-0.93829 0.73912,-1.66451 0.32293,-2.17744 0.77177,-3.21683 1.95965,-4.53804 1.32225,-1.47066 2.59513,-2.2125 4.49566,-2.62009 1.24321,-0.26662 1.33301,-0.3493 2.3697,-2.18189 1.01338,-1.79138 2.13005,-4.27352 2.57398,-5.72148 0.16211,-0.52873 0.0396,-0.7707 -0.69571,-1.37442 -0.8269,-0.67889 -0.86071,-0.76483 -0.46029,-1.17006 0.53683,-0.54329 0.93465,-0.36213 3.54778,1.61557 2.04913,1.55084 3.56069,3.42317 3.56069,4.41051 0,0.98982 -1.71281,2.75439 -3.93284,4.0517 -1.58138,0.9241 -2.0506,1.33839 -2.15979,1.90699 -0.16334,0.85052 -0.56918,0.87759 -2.42554,0.16176 -1.07483,-0.41447 -1.40538,-0.43531 -2.45434,-0.15475 -1.74099,0.46564 -3.23831,1.55323 -4.05804,2.94759 -0.95348,1.62188 -1.01141,4.59163 -0.12232,6.27134 2.052,3.87678 6.97573,4.53601 9.80567,1.31288 1.27655,-1.45391 1.82774,-4.21536 0.98157,-4.91761 -0.21828,-0.18116 -0.39687,-0.43267 -0.39687,-0.55891 0,-0.12624 1.10132,-0.78023 2.44739,-1.45329 4.4923,-2.24626 7.35756,-4.75741 8.14267,-7.13631 0.48277,-1.46282 0.21984,-4.25209 -0.5451,-5.78252 -1.25807,-2.51704 -5.7086,-6.69648 -9.17281,-8.61406 -1.39903,-0.77442 -1.56752,-1.20465 -0.69552,-1.776 l 0.68878,-0.45131 -0.14843,-3.31953 c -0.44894,-10.0397 -4.06823,-18.43582 -10.90158,-25.2898 C 98.82619,93.627577 85.339675,90.461534 73.291844,94.644124 61.325027,98.798588 53.051832,108.30483 49.968375,121.44375 c -0.815023,3.47289 -1.115502,9.42561 -0.642183,12.72213 0.699488,4.87171 2.306199,9.80933 4.552454,13.99025 1.551194,2.88721 4.360085,6.81469 6.039195,8.44418 1.769005,1.71672 5.177838,4.30377 7.110858,5.39659 0.776618,0.43906 1.469139,0.9471 1.538935,1.12899 0.0698,0.18189 -0.0024,2.39711 -0.160337,4.92272 -1.077303,17.22251 -1.629313,27.58696 -2.023658,37.99588 l -0.182943,4.82888 -1.085765,0.27736 c -3.471683,0.88686 -5.372649,2.00363 -5.937691,3.48822 -1.066413,2.80191 1.539632,4.31016 6.351691,3.67606 2.984587,-0.39329 5.68185,-1.2382 6.470518,-2.02687 0.622401,-0.6224 0.628687,-0.68491 0.629855,-6.2631 0.0015,-7.3992 0.792942,-23.73095 1.899776,-39.20512 0.400831,-5.60384 0.389188,-5.58441 3.036712,-5.06716 3.080128,0.60178 6.602524,0.7554 9.450757,0.41219 2.144963,-0.25846 3.027739,-0.28365 3.310449,0.006 0.64088,0.65586 5.887531,42.86993 5.861456,46.84672 -0.01406,2.14436 0.06481,2.64488 0.504917,3.20439 1.463883,1.86102 8.256999,3.24108 10.774989,2.189 z M 78.052083,135.90201 c -1.706089,-0.79677 -3.042709,-1.93181 -3.042709,-2.58384 0,-0.87823 0.764003,-0.89322 1.671085,-0.0328 1.403172,1.331 2.507282,1.76977 4.434936,1.76242 1.395672,-0.005 1.976322,-0.1449 2.931509,-0.70468 0.655113,-0.38392 1.345029,-0.8835 1.533147,-1.11017 0.438755,-0.52866 1.042978,-0.5284 1.245954,5.5e-4 0.226471,0.59017 -1.11338,1.91628 -2.688506,2.66092 -1.814052,0.85759 -4.2588,0.86064 -6.085416,0.008 z m 12.038541,-9.46312 c -0.845197,-0.33604 -2.05723,-1.48365 -2.537163,-2.40232 -0.476506,-0.9121 -0.481471,-3.41523 -0.009,-4.51955 0.652552,-1.52511 1.824974,-2.37944 3.45036,-2.51423 1.802027,-0.14944 2.929399,0.46744 3.861178,2.11278 0.762022,1.34558 0.852275,3.58569 0.195071,4.84172 -0.599753,1.14623 -1.819632,2.21981 -2.861985,2.51875 -1.074976,0.3083 -1.236818,0.30544 -2.098496,-0.0371 z M 69.955273,125.6088 c -2.008637,-1.33485 -2.637074,-4.28553 -1.429041,-6.70974 2.216025,-4.44698 7.778426,-2.42833 7.481514,2.71512 -0.206926,3.5846 -3.449302,5.72456 -6.052473,3.99462 z m -13.714394,36.66999 c 1.323366,-0.71113 2.524699,-2.30736 2.786394,-3.70231 0.148925,-0.79384 0.01155,-1.03647 -1.56455,-2.76337 -0.950296,-1.04121 -2.242853,-2.649 -2.87235,-3.57286 -1.317729,-1.93392 -1.74678,-2.05946 -3.508988,-1.02674 -1.038914,0.60885 -1.166283,0.62882 -1.493724,0.23428 -0.309868,-0.37337 -0.259301,-0.51619 0.376357,-1.06296 0.403877,-0.3474 1.109906,-0.56381 1.019697,-0.70977 -0.09021,-0.14596 -1.348784,-0.95202 -2.247577,-1.56238 -2.234115,-1.51715 -3.899112,-3.0909 -4.313768,-4.07735 -0.576139,-1.37062 -0.08355,-2.45406 2.016422,-4.43506 l 1.846798,-1.74218 -0.421681,-2.84936 c -0.231924,-1.56715 -0.46935,-2.89846 -0.527614,-2.95848 -0.428908,-0.44183 -5.280479,3.25344 -6.841906,5.21124 -1.720026,2.15665 -2.330517,3.92571 -2.219094,6.43039 0.07836,1.7614 0.207023,2.1993 1.049507,3.57188 1.138059,1.85413 3.784812,4.19133 6.623998,5.84929 l 2.027967,1.18424 -0.140274,2.42479 c -0.139646,2.41394 -0.13629,2.43066 0.750158,3.73744 1.838393,2.7101 4.721326,3.39532 7.654228,1.81927 z m 61.448281,-13.5232 c 1.71863,-1.00327 3.24347,-2.26233 3.64219,-3.00734 0.21695,-0.40538 0.0429,-0.73039 -0.97236,-1.8158 -0.68014,-0.72712 -1.40511,-1.32204 -1.61104,-1.32204 -0.20594,0 -0.50455,0.37324 -0.66357,0.82941 -0.15902,0.45617 -0.8672,2.0115 -1.57374,3.45628 -0.70653,1.44479 -1.2846,2.73469 -1.2846,2.86646 0,0.32153 0.62522,0.0659 2.46312,-1.00697 z M 51.990625,148.1886 c 0,-0.13346 -0.25422,-0.81807 -0.564932,-1.52136 -0.89046,-2.0155 -2.42808,-6.77428 -2.862501,-6.9191 -0.459356,-0.15311 -2.922567,2.49451 -2.922567,3.14138 0,0.72289 1.810312,2.57647 4.101041,4.19906 1.906287,1.35028 2.248959,1.51789 2.248959,1.10002 z"
         id="path12"
         sodipodi:nodetypes="csssssssssssssssscssssscssssscssssscsssssssssssssssssccssscsscssssssssssssssssssssssssscssssssssscscsssscsssssssscsscsssscccscssssccssssssssssssssscsssssscsssssssssssssssss" /></g></g></svg>
