<?xml version="1.0" encoding="UTF-8" standalone="no"?>
<!-- Created with Inkscape (http://www.inkscape.org/) -->

<svg
   width="210mm"
   height="297mm"
   viewBox="0 0 210 297"
   version="1.1"
   id="svg1"
   xml:space="preserve"
   inkscape:version="1.4.4 (dcaf3e7d9e, 2026-05-05)"
   sodipodi:docname="filobelo_walking.svg"
   xmlns:inkscape="http://www.inkscape.org/namespaces/inkscape"
   xmlns:sodipodi="http://sodipodi.sourceforge.net/DTD/sodipodi-0.dtd"
   xmlns="http://www.w3.org/2000/svg"
   xmlns:svg="http://www.w3.org/2000/svg"><sodipodi:namedview
     id="namedview1"
     pagecolor="#ffffff"
     bordercolor="#000000"
     borderopacity="0.25"
     inkscape:showpageshadow="2"
     inkscape:pageopacity="0.0"
     inkscape:pagecheckerboard="0"
     inkscape:deskcolor="#d1d1d1"
     inkscape:document-units="mm"
     inkscape:zoom="0.58606487"
     inkscape:cx="468.37818"
     inkscape:cy="406.09839"
     inkscape:window-width="1536"
     inkscape:window-height="795"
     inkscape:window-x="0"
     inkscape:window-y="0"
     inkscape:window-maximized="1"
     inkscape:current-layer="layer1" /><defs
     id="defs1" /><g
     inkscape:label="Layer 1"
     inkscape:groupmode="layer"
     id="layer1"><g
       id="g1"
       transform="translate(-0.14545965,-14.374537)"><path
         style="fill:#6fe1e8"
         d="m 117.40223,219.56665 c -1.74525,-1.00983 -1.08104,-0.90812 -2.79239,-4.48069 -0.76679,-1.60072 -2.37208,-4.83038 -3.36107,-6.86767 -2.58285,-5.32056 -4.57467,-9.72113 -4.57467,-9.91376 0,-0.19918 -1.2062,-2.01819 -1.80926,-4.03688 -0.0875,-0.29289 -0.95198,-2.21648 -1.04387,-2.43476 -0.14834,-0.35234 -2.19806,-3.10182 -3.5598,-5.94745 -0.278552,-0.58209 -1.067182,-2.87408 -1.514782,-3.96549 -0.447596,-1.09141 -1.169274,-2.62264 -1.731751,-3.7868 -1.32569,-2.7438 -1.965737,-4.72672 -3.005326,-7.19148 -0.460335,-1.0914 -1.060526,-2.3953 -1.272773,-2.87318 -0.212247,-0.47788 -0.839798,-1.17436 -0.839798,-1.33436 0,-0.54497 -2.136968,-3.18122 -2.679475,-3.64593 -0.310877,-0.2663 -0.301149,-0.49891 -0.883992,-0.49891 -0.557374,0 -1.756405,-0.52183 -1.839781,-0.65673 -0.08338,-0.13491 -1.242419,-0.7342 -1.74774,-1.00317 -0.887936,-0.47262 -1.026161,-0.46325 -3.804914,-2.11645 -1.940511,-1.15449 -4.984362,-4.08223 -6.919275,-6.46918 -1.063894,-1.31243 -1.825635,-3.06406 -2.040645,-3.31268 -0.215011,-0.24862 -0.635241,-0.90347 -0.933844,-1.45521 -0.298604,-0.55174 -0.652306,-1.18176 -0.786006,-1.40004 -0.710103,-1.15933 -2.212537,-4.36873 -2.357789,-5.50004 -0.150066,-1.16881 0.30924,-0.88915 0.877606,-1.14811 0.343021,-0.15629 0.291722,-0.44424 0.567151,-0.67671 0.668441,-0.56419 -0.475647,-0.25391 -0.893897,0.0655 -10.031585,7.66102 -14.038788,17.25909 -9.066162,21.83545 2.373547,2.1844 3.085613,6.36662 -0.248079,10.09429 -0.603046,0.67431 -6.734964,2.03315 -7.144687,1.65382 -2.655229,-2.45829 -4.348926,-6.5895 -3.937311,-7.6017 0.797604,-1.96139 1.691133,-3.85382 1.538425,-5.18019 -0.146807,-1.27513 1.468437,-8.59712 1.921773,-9.17957 0.113262,-0.14552 0.893523,-2.23936 1.077836,-2.82144 0.184314,-0.58209 0.72838,-1.52607 1.072354,-2.17976 0.343975,-0.65368 0.911865,-1.86543 0.986854,-1.97947 2.201742,-3.34845 0.693127,-0.97107 1.529872,-2.20926 1.704433,-2.52214 4.337179,-5.9408 6.355445,-7.31783 3.314848,-2.26167 1.799463,-0.92344 2.411482,-2.29382 l 0.497092,-1.11305 -0.125832,-3.93811 c -0.103092,-3.22643 0.366815,-5.81375 0.744457,-7.0683 0.28473,-0.94588 0.610795,-1.95233 0.706692,-2.38889 0.337856,-1.53807 1.373511,-4.64241 2.219945,-6.07032 0.215653,-0.3638 1.009179,-1.82279 1.211115,-2.27093 0.201935,-0.44815 0.78635,-1.48293 1.013038,-1.67107 0.226689,-0.18813 -0.220511,-1.32688 1.323591,-2.88597 1.639073,-1.65498 14.597154,-18.242226 32.737801,-15.55943 1.56356,0.231233 4.66523,0.288986 7.48914,1.478979 0.87468,0.36859 2.03503,0.362645 2.41949,0.5687 0.38447,0.206055 1.65153,0.635591 2.8157,1.188186 1.16417,0.552595 2.55468,1.072309 3.13676,1.482045 0.58208,0.409736 1.7427,1.404529 2.25202,1.743327 0.77102,0.512875 4.34586,4.026672 5.58705,5.450233 0.19032,0.21828 1.39808,1.37588 2.12313,2.47898 2.90737,4.42334 5.20175,10.07557 6.45254,14.37195 0.5604,1.92493 0.18944,2.5829 0.28446,2.73666 0.30748,0.4975 0.55847,8.2061 0.34741,10.66969 -0.20464,2.38857 -1.55331,8.34568 -2.02667,8.95183 -0.1375,0.17607 -0.38347,0.86788 -0.54661,1.53735 -0.36545,1.49967 -0.24109,3.7063 -2.06302,6.47522 -0.27797,0.42245 -1.46136,1.85611 -1.83532,2.43819 -0.37396,0.58209 -1.94539,2.7468 -3.49581,4.27477 -4.10389,4.04446 -5.85396,4.7442 -7.13639,5.68638 -0.45931,0.33745 -1.32536,0.58839 -1.9565,0.70825 -0.21182,0.0402 -0.12245,-0.18375 -0.70944,0.14997 -1.33188,0.75721 -0.9362,-0.37399 -1.44486,1.5877 -0.63535,1.42887 -0.39257,1.52313 -0.39257,1.52313 -1.00337,2.71901 -1.52933,4.41379 -2.53325,6.85118 -0.76411,0.56652 -5.25881,14.90352 -6.84167,9.69924 -0.11978,-0.39382 -0.50692,-1.11795 -0.83516,-1.77523 -0.32823,-0.65728 -1.14069,-1.89521 -1.30613,-2.50959 -0.27868,-1.03492 -0.0649,-1.76216 0.76249,-3.55305 0.49122,-1.06317 0.68426,-2.1591 0.79108,-2.58917 0.10683,-0.43007 0.57547,-1.47584 0.83618,-1.76689 0.26072,-0.29104 0.71448,-1.63655 0.80551,-2.1213 0.091,-0.48475 0.5012,-1.78406 0.79352,-2.15569 0.63616,-0.80874 -2.33718,0.21748 -4.17469,0.14376 -0.68667,-0.0276 4.38094,-1.4282 3.48167,-1.0863 -0.36921,0.14038 1.93268,1.1723 0.46742,0.79409 -0.59222,-0.15287 0.34077,0.0532 -2.70044,0.23436 -3.09707,0.1845 -4.86503,-0.14677 -5.11724,-0.15721 l -1.467569,-0.0607 0.423498,0.9194 c 0.141131,0.30639 -0.60173,-0.68864 -0.96553,-1.48399 -0.3638,-0.79536 -1.752766,-1.62908 -1.752766,-1.75912 0,-0.4703 0.769403,-0.51154 0.303457,-0.51154 -0.872037,0 -0.172668,-0.59229 0.554131,0.51693 0.237886,0.36306 0.690452,1.12819 0.816696,1.80394 0.126244,0.67575 0.740149,1.17189 0.937496,1.40127 1.035987,1.82258 1.780327,4.44414 2.653807,6.35754 3.16264,6.70435 12.137,27.48576 13.81618,30.85938 0.26582,0.52681 1.49336,4.70294 2.69425,3.5197 2.07136,-2.04092 -0.82154,1.19359 -1.18889,2.43312 -0.27439,0.92586 -0.75097,2.41514 -0.46455,2.70156 0.33353,0.33353 0.0749,-0.25464 0.38645,-0.68074 0.17694,-0.24198 0.73073,-2.20512 1.24459,-2.99308 2.61446,-4.00904 2.51808,-5.09 5.96072,-4.17994 0.68948,0.18226 1.7552,1.69347 1.82379,3.92911 0.0528,1.72152 -0.18638,3.01061 -0.45007,3.89578 -0.66258,2.22453 -0.43663,4.00463 -0.72722,4.39402 -0.15154,0.20306 -1.32731,1.9857 -1.53435,2.39817 -0.79694,1.58762 -3.48064,3.67149 -4.95284,2.81966 z m -1.31027,-87.29329 c 1.23226,-0.62775 1.06277,-0.57181 1.68297,-1.33462 0.43533,-0.53545 0.84904,-0.80206 0.34739,-0.80206 -0.2025,0 0.0614,0.1981 -0.78706,0.7836 -2.4831,1.71348 -4.46195,1.73287 -7.56901,0.26868 -1.64884,-0.77701 -1.949,-1.27465 -1.13749,-0.47544 1.0747,1.05841 1.34535,1.47304 2.96103,1.85843 1.33367,0.31813 3.47157,0.07 4.50263,-0.29859 z m -11.19558,-12.22199 c 0.38356,-0.28405 -0.62946,0.98596 -0.31932,0.53053 1.04905,-1.54052 0.44743,-2.33763 -0.60453,-3.94276 -0.67862,-1.0357 0.11882,-0.97623 -1.0519,-0.97623 -1.15716,0 -0.24654,0.29604 -1.05255,1.52617 -1.33055,2.03067 -2.467331,6.27342 3.0283,2.86229 z m 18.92588,0.88924 c 1.47296,-1.00091 0.0464,0.34884 0.0345,-1.89904 -0.008,-1.5495 2.92258,-1.76062 1.10579,-3.38501 -3.14927,-2.81576 -1.0883,-1.58703 -3.03514,-0.23787 -1.37586,0.95347 -2.26211,0.54814 -2.42486,2.93925 -0.17163,2.5217 1.15632,2.37591 2.70066,3.49463 1.46896,1.0641 0.18434,0.063 1.61909,-0.91196 z m -41.019044,92.24353 c -2.176724,-0.79155 -3.675524,-7.37209 -3.717647,-10.44194 -0.02218,-1.61631 -0.07053,-3.08163 0.997032,-3.66767 0.348177,-0.19113 1.724829,-1.22681 2.216091,-1.49852 2.427111,-1.34241 4.993313,-3.4445 7.022197,-5.2358 0.291042,-0.25696 2.04651,-1.51886 2.954751,-2.32639 0.908241,-0.80752 2.72874,-2.51941 2.921374,-2.51941 0.197041,0 1.381097,1.96053 1.716997,2.96527 0.328387,0.98227 1.364113,1.91247 1.500433,2.16713 0.165266,0.30874 1.155235,0.61125 0.933211,0.97361 -0.320801,0.52357 -4.347964,3.88115 -5.710567,4.79858 -0.363802,0.24495 -1.578955,0.73011 -2.161039,1.16803 -0.582083,0.43791 -1.096403,1.26182 -1.387445,1.41565 -0.291041,0.15384 -1.243346,0.98609 -2.043711,1.45809 -1.753571,1.03414 -0.126334,1.59604 0.166801,3.47514 0.278201,1.78336 0.899144,3.48136 0.706683,4.44366 -0.08642,0.43209 -0.141919,1.41617 -0.444529,1.90581 -0.774886,1.25379 -0.9684,2.6287 -2.779887,1.96997 z m 73.185004,-45.41197 c -1.18796,-0.39035 -3.44606,-0.83286 -2.66292,-0.76252 1.32049,0.11861 -8.73772,-4.56891 -9.60259,-4.87919 -6.86917,-2.46434 -11.93581,-9.65274 -11.93581,-11.53724 0,-0.10959 1.1412,-2.29294 1.56141,-2.8235 0.75962,-0.95909 1.621,-1.87161 1.32435,-2.16827 -0.0854,-0.0854 1.13823,-1.54474 1.29628,-1.54474 0.1581,0 0.67149,1.1949 1.34397,2.31253 1.5166,2.52051 2.2398,2.58672 3.13536,3.97863 2.12857,3.30829 7.08799,6.22478 8.76974,6.73162 1.42099,0.42826 2.74655,0.45948 2.89274,-0.001 0.2434,-0.76687 2.62827,-2.34666 3.6514,-2.68802 1.33377,-0.44499 3.71102,0.4675 4.93229,1.0222 3.49899,1.5892 3.56149,7.98931 0.8108,10.86018 -1.67278,1.74586 -3.62517,2.1211 -5.51702,1.49945 z"
         id="path4"
         sodipodi:nodetypes="ssssssssssssssssssssssssssssssssssssscssssssssssssssssssssssssssscsssssssssssssscssssssscsssssssscsssscssssssscscsscssssssssssssssssssssssssssssssssssssssssssss" /><path
         style="fill:#4fa1a5"
         d="m 137.77184,123.88843 c -199.168443,-124.9573442 -199.168443,-124.9573442 0,0 z m -0.34911,6.9364 c -198.819333,-131.8937442 -198.819333,-131.8937442 0,0 z m -33.60969,-6.83442 c -165.209643,-125.0593242 -165.209643,-125.0593242 0,0 z m -4.368597,-6.39872 c -160.841046,-118.6606042 -160.841046,-118.6606042 0,0 z m -1.283171,66.56354 c 1.70582,-0.9934 1.096278,0.5239 1.28878,0.5239 0.387726,0 0.862088,1.03777 1.771098,3.14649 l 1.07678,2.49792 -1.0346,1.90079 c -2.044322,3.75588 -9.999665,-4.05218 -3.102058,-8.0691 z m 0.956078,4.65572 c -0.0962,-0.61847 0.02858,-0.95385 -0.201567,-1.12764 -0.230152,-0.17379 -0.673734,-0.27372 -0.766199,-0.72582 -0.189883,-0.92843 0.318731,-1.78203 0.19087,-0.96592 -0.0465,0.2968 0.02374,0.53964 0.156088,0.53964 0.13235,0 0.398376,0.47796 0.591168,1.06212 0.192792,0.58417 0.509505,1.19406 0.703807,1.35532 0.194302,0.16125 0.353273,0.4572 0.353273,0.65767 0,0.20046 0.0747,0.36448 0.16611,0.36448 0.0914,0 -0.655267,0.0775 -0.751667,-0.54096 z m 40.7218,-29.37712 c -201.235753,-160.5027442 -201.235753,-160.5027442 0,0 z"
         id="path3"
         sodipodi:nodetypes="ssssssssssscsscssssssssccss" /><path
         style="fill:#285a5d"
         d="m 116.25929,132.43693 c 1.12446,-0.58148 2.40634,-1.72849 2.40634,-2.15316 0,-0.58913 -0.46797,-0.44432 -1.76529,0.54626 -1.76741,1.40465 -4.23288,1.53993 -6.27666,0.61356 -0.34248,-0.1884 -1.00593,-0.55969 -1.47433,-0.82508 -2.84946,0.61356 4.80437,2.73703 7.10994,1.81842 z m -10.95118,-9.78762 c 1.18901,-0.9069 1.71585,-2.17191 1.71585,-4.11994 0,-2.01524 -0.70659,-3.43446 -2.02228,-4.06187 -1.1852,-0.56518 -2.00999,-0.54541 -3.23089,0.0774 -2.667404,1.36081 -2.749639,6.55396 -0.13032,8.23016 1.10637,0.70801 2.64359,0.65529 3.66764,-0.12579 z m 21.14936,-4.24156 c -0.0159,-1.89571 -0.58357,-3.12107 -1.78542,-3.85388 -1.66484,-1.01511 -3.63699,-0.49196 -4.71385,1.25043 -0.48337,0.78212 -0.61273,1.37841 -0.62085,2.86196 -0.0331,6.05496 7.17355,6.11634 7.12012,-0.25851 z m 12.51203,31.08183 c -200.366103,-150.5584942 -200.366103,-150.5584942 0,0 z"
         id="path2"
         sodipodi:nodetypes="sssssssscsccssssssss" /><path
         style="fill:#000000;fill-opacity:1"
         d="m 118.07942,220.7082 c -1.4629,-0.69272 -2.18092,-1.4848 -3.11972,-3.44146 -0.46539,-0.96999 -1.71452,-3.54955 -2.77585,-5.73236 -1.76561,-3.63132 -2.2867,-4.735 -4.3097,-9.12813 -0.669,-1.45278 -4.42043,-9.30255 -4.80492,-10.05416 -0.3932,-0.76862 -0.97515,-0.52969 -2.71852,1.11609 -3.402861,3.21239 -6.623571,5.81621 -9.334042,7.54621 -2.536884,1.61921 -3.340214,2.2984 -3.205845,2.71044 0.07196,0.22067 0.495292,1.40752 0.940737,2.63746 1.36185,3.76025 1.01232,6.28843 -1.086784,7.86076 -0.71438,0.53511 -1.107102,0.63915 -2.072066,0.54895 -2.711751,-0.25348 -4.773969,-2.72025 -6.135126,-7.33866 -0.913632,-3.09997 -0.99593,-3.55069 -1.002312,-5.48935 -0.209996,-3.86437 4.260508,-5.07742 6.914499,-6.93207 0.77746,-0.57268 1.807899,-1.31612 2.289865,-1.6521 1.712329,-1.19365 4.698752,-3.73402 5.963627,-5.07291 3.107151,-3.28895 4.669447,-5.15512 4.669447,-5.57768 0,-0.43038 -1.00965,-2.98043 -2.100865,-5.3061 -2.167011,-3.7821 -3.921266,-12.14398 -7.140926,-14.11356 -4.651163,-1.29578 -10.42984,-5.03521 -14.306126,-9.25762 -2.445586,-2.66395 -2.683601,-2.98164 -4.691602,-6.26216 -0.826737,-1.35066 -2.18726,-4.17092 -2.474352,-5.12915 -0.343133,-1.14527 -0.814912,-1.49015 -1.521315,-1.11209 -4.8925,2.6184 -11.062032,15.79333 -7.543988,17.57702 0.924349,0.46866 1.903072,1.77238 2.652727,3.07023 0.977794,1.69284 1.037922,4.84546 0.127666,6.69381 -0.673224,1.36703 -2.325259,2.95832 -3.672409,3.53736 -1.258041,0.54073 -4.722264,0.46661 -6.033641,-0.12911 -2.60339,-1.18263 -4.184671,-3.26843 -4.184671,-6.61821 0,-2.24363 0.538839,-2.87577 1.812292,-5.05756 0.249516,-0.4275 0.387936,-1.41015 0.391335,-2.77813 0.0031,-1.23351 0.277939,-3.3862 0.658791,-5.15938 0.825157,-3.84176 1.689567,-5.97015 4.17126,-10.27068 1.310932,-2.27172 4.605463,-5.95247 7.409469,-8.27809 l 2.844271,-2.35902 2.21e-4,-2.84141 c 2.83e-4,-3.62624 0.435213,-8.24832 0.952037,-10.11746 0.221304,-0.80037 0.552168,-2.05435 0.735255,-2.78663 0.183086,-0.73228 0.533139,-1.73284 0.777894,-2.22346 0.244756,-0.49063 0.445762,-1.02258 0.446682,-1.18212 0.0023,-0.40134 2.943401,-6.16666 3.725544,-7.30307 2.790379,-4.05426 5.85458,-7.357602 9.237367,-9.958299 2.211894,-1.700511 3.50076,-2.611246 8.202084,-4.902765 1.267376,-0.617745 4.638178,-1.568211 7.14375,-1.997864 3.781389,-0.648429 13.09952,-0.444652 15.1319,0.302407 0.30241,0.11116 2.18601,0.584746 2.84756,0.771232 1.77144,0.499351 4.23209,1.633551 5.99771,2.674496 0.85532,0.504263 1.97184,1.148687 2.48116,1.432053 1.04393,0.580799 5.04944,3.984812 6.12414,5.204498 1.18633,1.346372 3.49421,4.417872 4.36878,5.814312 2.07,3.30521 4.21762,8.65233 5.26023,13.09687 1.19564,5.0969 1.20592,14.39459 0.0205,18.58773 -0.21586,0.76358 -0.56613,2.04316 -0.77839,2.84352 -2.3548,8.87927 -1.17368,-0.0146 -1.11736,3.88019 0.005,0.33541 7.63907,11.05441 7.97904,11.05441 0.16005,0 0.94403,0.81598 1.25181,1.0005 0.66011,0.39575 4.38137,1.78989 5.0419,1.79108 0.27595,5e-4 1.05912,-0.52046 1.74037,-1.1577 2.02572,-1.89482 4.70625,-2.44655 7.46486,-1.53648 1.52775,0.50401 1.89678,0.74157 3.15913,2.03363 5.91566,6.05483 -3.9604,17.87029 -11.29942,9.77458 -1.81206,-1.99889 -11.97754,-3.93169 -11.97754,-5.4906 0,-0.14115 0.63007,0.34623 0.47912,0.34623 -1.0155,0 -6.69628,-5.81492 -7.98146,-8.16993 -0.5585,-1.0234 -1.34191,-1.07246 -1.98433,-0.12426 -1.56649,2.31211 -7.04128,6.87644 -10.06652,8.39244 -2.32919,1.16721 -2.36974,1.20543 -2.91523,2.74809 -1.4519,5.23141 -3.57332,10.1417 -5.87353,15.07202 -0.14007,0.32348 -0.79463,1.53974 -1.45457,2.7028 -0.65995,1.16306 -1.1999,2.28299 -1.1999,2.48873 0,0.35685 0.77469,2.25819 1.84941,4.53907 0.27427,0.58208 0.73407,1.59411 1.02178,2.24896 0.28771,0.65484 0.95001,2.11597 1.47179,3.24694 0.52178,1.13098 0.94869,2.10829 0.94869,2.1718 0,0.0989 1.85164,4.11144 3.05478,6.6198 0.2094,0.43656 0.54232,1.27 0.73982,1.85208 1.22177,3.60089 4.09309,-5.47585 8.23994,-1.67568 0.78955,0.72358 1.0426,1.20606 1.29949,2.47774 0.75916,3.75799 -1.25892,11.20403 -3.78618,13.96973 -0.82309,0.90075 -2.62438,1.76805 -3.64636,1.75569 -0.40816,-0.005 -1.18451,-0.21846 -1.7252,-0.47449 z m 4.07853,-1.2401 c 0.96785,-0.81439 2.07291,-2.61524 2.59538,-4.22956 0.18839,-0.58208 0.49258,-1.29645 0.67598,-1.5875 0.1834,-0.29104 0.58421,-1.80738 0.89069,-3.36964 0.47189,-2.40542 0.51006,-3.03356 0.24925,-4.10105 -0.45393,-1.85788 -0.90472,-2.60197 -1.80132,-2.97335 -2.39688,-0.99282 -4.6119,1.18474 -6.38482,6.27686 -0.33075,0.94996 -0.73091,1.65364 -0.94037,1.65364 -0.4683,0 -0.46036,-0.45584 0.0323,-1.85208 0.66406,-1.88215 0.58728,-2.20443 -1.60824,-6.75067 -0.3524,-0.7297 -0.64072,-1.41476 -0.64072,-1.52237 0,-0.21136 -4.77325,-10.38861 -6.00721,-13.15821 -0.35658,-0.80037 -0.86779,-1.93146 -1.13602,-2.51354 -1.74709,-3.79148 -2.95348,-6.4997 -3.94831,-8.86354 -0.45932,-1.09141 -0.94988,-2.16297 -1.09013,-2.38125 -0.14025,-0.21829 -0.38137,-0.69454 -0.53582,-1.05834 -0.56314,-1.32646 -3.228932,-7.31746 -3.826256,-8.59896 -1.045699,-2.24344 -1.440781,-3.42026 -1.22178,-3.63926 1.570917,0.54987 4.929876,9.88961 5.941146,11.97364 0.18441,0.3638 0.50933,0.66146 0.72203,0.66146 0.56184,0 3.22658,-5.48517 3.57136,-7.35137 0.21363,-1.15637 0.96223,-2.20778 1.38562,-1.94611 0.20217,0.12495 0.14795,0.51933 -0.17858,1.29887 -0.2579,0.61569 -0.79992,2.01241 -1.20449,3.10382 -0.7476,2.0168 -1.74546,4.32616 -2.41843,5.59707 -0.62413,1.17866 -0.55536,1.45609 1.46563,5.9123 0.26399,0.58208 0.55012,1.26669 0.63585,1.52135 0.22482,0.66785 1.14367,0.56921 1.5471,-0.16607 3.11863,-6.21561 6.91509,-13.7076 7.88755,-20.70361 -9.7e-4,-0.16409 0.16853,-0.43966 0.37667,-0.6124 0.30266,-0.25119 0.43694,-0.20471 0.67076,0.23219 0.38763,0.72428 0.68619,0.68201 2.28813,-0.32395 9.90639,-6.22082 14.02085,-13.92469 16.52582,-21.88397 1.26388,-4.06827 1.28913,-5.25177 1.26834,-11.21346 -0.0139,-3.97754 -0.26099,-5.92586 -0.55405,-7.2517 -0.64971,-2.93928 -1.4972,-6.01034 -1.74553,-6.32528 -0.12547,-0.15912 -0.41128,-0.82821 -0.59684,-1.41029 -1.331,-4.17524 -4.38799,-9.45602 -8.20021,-13.222186 -3.05492,-3.018014 -3.6276,-3.088958 -6.58129,-4.901124 -4.76556,-2.923804 -11.70332,-4.624399 -17.20635,-4.839774 -2.53793,-0.09933 -7.449408,0.427761 -9.633847,1.140834 -1.11634,0.36441 -2.206315,0.563336 -2.352264,0.664194 -0.177405,0.122596 -0.581039,0.245044 -0.975901,0.428765 -0.459135,0.213626 -1.116188,0.442351 -1.634602,0.720894 -0.550971,0.296036 -0.817304,0.463323 -1.342921,0.668636 -0.501466,0.19588 -1.104101,0.717368 -1.204831,0.76165 -0.387807,0.170483 -4.414682,2.923357 -6.523591,4.703419 -2.456193,2.073192 -5.944321,5.493482 -6.878459,7.134802 -0.248465,0.43656 -0.737091,1.27 -1.085836,1.85208 -1.851684,3.09061 -2.990693,5.73789 -4.439707,10.31875 -0.833312,2.6344 -1.206468,5.07777 -1.420533,9.3014 -0.156789,3.09357 -0.132801,3.33474 0.403881,4.06064 0.313814,0.42446 0.570571,0.83757 0.570571,0.91803 0,0.0805 -0.625079,0.56129 -1.389063,1.06852 -2.317229,1.53845 -2.532506,1.72022 -5.142948,4.3426 -2.372783,2.38363 -2.838895,2.95419 -4.638632,5.67805 -2.840284,4.29869 -4.666914,9.89128 -4.89262,14.97972 -0.117367,2.64597 -0.214749,3.14907 -0.746865,3.85842 -0.336546,0.44864 -0.81257,1.50599 -1.057832,2.34966 -0.38692,1.33096 -0.401567,1.7482 -0.110679,3.15304 0.287226,1.38715 0.528244,1.81392 1.682466,2.97913 1.855979,1.87366 3.83024,2.36229 6.662819,1.64904 1.502055,-0.37822 3.593377,-2.6043 4.080219,-4.34313 1.02677,-3.66725 -1.506407,-7.09984 -3.824781,-7.68172 -2.773165,-0.69601 2.325727,-12.42939 3.439823,-13.354 0.210013,-0.1743 0.382378,-0.45115 0.383032,-0.61523 0.0035,-0.87472 6.002814,-6.49796 7.728425,-7.24396 1.194126,-0.51623 1.230485,0.17142 0.06098,1.15328 l -1.028279,0.8633 0.487957,1.40619 c 1.988783,5.73126 6.230237,11.52518 11.316611,15.45873 0.825692,0.63855 1.56749,1.16485 1.672522,1.25552 0.422324,0.36459 0.394034,0.18431 0.567285,0.39306 0.173251,0.20876 0.855427,0.51098 1.416923,0.80365 0.561496,0.29267 1.237996,0.65125 1.503332,0.79686 1.851601,1.01605 3.52756,1.66955 4.318889,1.68405 4.337524,2.38404 4.989813,8.4837 6.991333,12.73795 1.851766,3.89589 3.062834,6.52109 3.062834,6.63923 0,0.23425 2.033299,4.63636 4.705839,10.18818 1.01574,2.11005 2.16301,4.55083 2.54949,5.42396 0.38649,0.87312 0.9879,2.18281 1.33648,2.91041 0.34858,0.72761 1.00688,2.15636 1.4629,3.175 0.45601,1.01865 0.94038,2.03068 1.07637,2.24896 0.24213,0.38863 0.43134,0.78362 1.01397,2.11667 0.15901,0.3638 0.40332,0.84005 0.54292,1.05833 0.1396,0.21828 0.66251,1.28985 1.16202,2.38125 3.18858,6.96693 4.09472,8.40332 5.72918,9.08182 0.86506,0.3591 2.62189,-0.0188 3.49232,-0.75122 z m -10.68218,-86.65006 c -1.22754,-0.30961 -2.74277,-0.97882 -3.26539,-1.72497 -0.55933,-0.79856 -0.09,-1.14555 0.93897,-0.61326 1.77256,0.91698 3.4875,1.52651 5.51503,1.24837 0.50634,-0.095 1.54581,-0.61428 2.20822,-1.12006 1.29732,-0.99058 1.79303,-0.91348 1.79303,-0.32435 0,0.42467 -1.28188,1.57168 -2.40634,2.15316 -0.95966,0.49626 -3.51861,0.70014 -4.78352,0.38111 z m -9.8353,-10.04294 c -1.25187,-0.80112 -1.860752,-2.05013 -1.877622,-3.8516 -0.02026,-2.16301 0.686632,-3.70448 2.007942,-4.37856 4.98685,-2.54409 7.02885,5.44125 3.53732,8.10437 -1.02405,0.78108 -2.56127,0.8338 -3.66764,0.12579 z m 19.61095,-0.15628 c -1.54753,-1.01363 -1.92589,-1.79493 -1.91407,-3.95256 0.008,-1.48355 0.13748,-2.07984 0.62085,-2.86196 1.07686,-1.74239 3.04901,-2.26554 4.71385,-1.25043 1.20185,0.73281 1.76953,1.95817 1.78542,3.85388 0.0187,2.23453 -0.64176,3.60065 -2.0907,4.32429 -1.41886,0.70861 -1.88659,0.69161 -3.11535,-0.11322 z m -33.343606,90.24307 c 0.786971,-0.8446 0.859896,-1.06846 0.859896,-2.63966 0,-1.29768 -0.199413,-2.21904 -0.816867,-3.77419 -0.449277,-1.13158 -0.934666,-2.19969 -1.078644,-2.37358 -0.455116,-0.54967 -0.117851,-1.46093 0.704886,-1.90453 3.11119,-1.67748 8.574246,-5.82241 11.418355,-8.66334 3.37909,-3.37531 3.27439,-2.97991 1.66989,-6.30636 -1.423553,-2.95132 -1.936456,-3.48053 -2.549163,-2.6302 -1.447268,2.00857 -3.933974,4.61003 -6.305749,6.59675 -1.018646,0.85327 -1.911614,1.61853 -1.984375,1.70059 -0.355241,0.4006 -2.892938,2.36289 -3.105678,2.36289 -0.133946,0 0.381252,-0.36363 0.209609,-0.15681 -0.171644,0.20681 -2.622176,1.69464 -4.155714,2.61561 -1.864556,1.11976 -2.922969,1.9336 -3.194909,2.45665 -1.172512,2.2552 1.091828,10.1023 3.654615,12.66512 1.496215,1.49623 3.308846,1.51603 4.673848,0.0511 z m 72.711506,-46.062 c 6.10968,-4.59369 2.55321,-12.30013 -3.44038,-12.27704 -2.0007,0.008 -3.93911,0.97598 -4.88712,2.44121 -0.35307,0.54571 -0.852,0.99219 -1.10873,0.99219 -0.64917,0 -4.77685,-1.54498 -5.2633,-1.97004 -0.21943,-0.19174 -0.67301,-0.43221 -1.00795,-0.53437 -0.86122,-0.2627 -4.56749,-4.47038 -5.69826,-6.20635 -0.52134,-0.80036 -1.63217,-2.07952 -2.17017,-3.14091 -1.15317,-2.27501 -1.43609,-2.31531 -2.2405,-0.31916 -0.1466,0.3638 -0.62221,1.25677 -1.0569,1.98437 -1.85193,3.09983 -1.81743,2.7611 -0.50294,4.93779 1.24613,2.0635 5.22596,6.28253 6.98609,7.40598 3.05894,1.95245 6.37449,2.68817 8.81469,2.9606 1.82556,0.20381 1.98827,0.88903 2.78274,1.96588 0.61531,0.83401 2.13198,2.0017 3.20654,2.46873 0.29802,0.12953 1.44526,0.19714 2.54941,0.15024 1.73554,-0.0737 2.147,-0.19012 3.03677,-0.85912 z"
         id="path1"
         sodipodi:nodetypes="cssssssssssssssssssssssssssssssssscsssssssssssssssssssssssssssssssssssssssssssscccsssssssssssscssssssssssssssssssssssssssssssssssssssssssssssssssssssscsssssccssssssssssssssssssssssssssscssssssssssssssssssssssscssssssssssssssss" /></g></g></svg>
