<?xml version="1.0" encoding="UTF-8" standalone="no"?>
<!-- Created with Inkscape (http://www.inkscape.org/) -->

<svg
   width="210mm"
   height="297mm"
   viewBox="0 0 210 297"
   version="1.1"
   id="svg1"
   xml:space="preserve"
   inkscape:version="1.4.4 (dcaf3e7d9e, 2026-05-05)"
   sodipodi:docname="filobelo_onboarding.svg"
   xmlns:inkscape="http://www.inkscape.org/namespaces/inkscape"
   xmlns:sodipodi="http://sodipodi.sourceforge.net/DTD/sodipodi-0.dtd"
   xmlns="http://www.w3.org/2000/svg"
   xmlns:svg="http://www.w3.org/2000/svg"><sodipodi:namedview
     id="namedview1"
     pagecolor="#ffffff"
     bordercolor="#000000"
     borderopacity="0.25"
     inkscape:showpageshadow="2"
     inkscape:pageopacity="0.0"
     inkscape:pagecheckerboard="0"
     inkscape:deskcolor="#d1d1d1"
     inkscape:document-units="mm"
     inkscape:zoom="0.82984472"
     inkscape:cx="588.66435"
     inkscape:cy="301.26118"
     inkscape:window-width="1536"
     inkscape:window-height="795"
     inkscape:window-x="0"
     inkscape:window-y="0"
     inkscape:window-maximized="1"
     inkscape:current-layer="layer1" /><defs
     id="defs1" /><g
     inkscape:label="Layer 1"
     inkscape:groupmode="layer"
     id="layer1"><g
       id="g1"
       transform="translate(7.3099906,13.850878)"><path
         style="fill:#5de1e8;fill-opacity:1"
         d="m 113.67651,214.14461 c -2.51039,-0.56166 -4.61893,-1.53883 -4.92619,-2.28296 -0.25539,-0.61848 -0.12752,-10.31156 -0.66246,-22.85539 -0.17623,-4.1322 -0.99827,-10.59671 -0.89457,-16.27848 0.16824,-9.21765 -0.57674,-9.89666 -0.4044,-10.61096 0.13775,-0.57093 0.78971,0.75495 0.78971,1.85389 0,1.04929 -1.38275,2.0791 -2.03715,2.25371 -1.13228,0.30214 -6.659964,-0.14016 -8.571657,-0.4986 -0.945885,-0.17734 -2.542188,-0.43688 -3.547339,-0.73903 -1.667031,-0.50111 -1.146704,-0.88085 -1.430235,-0.49309 -0.317623,0.43437 -1.532846,8.56661 -2.248068,18.03961 -0.219739,2.91041 -0.721065,10.52328 -0.787361,17.06661 l -0.120534,11.89659 -0.513231,1.29241 c -0.491462,1.23759 -3.725686,1.84702 -7.028472,1.33511 -4.757008,-0.73729 -4.953141,-0.99869 -6.081924,-2.46892 -1.000061,-1.30257 -0.369652,-3.04921 1.428457,-3.91966 0.880306,-0.42615 3.5509,-1.31254 5.210938,-1.50581 0.04361,-0.005 0.375213,-0.29321 0.282263,-1.12995 -0.512092,-4.60888 1.471266,-31.32357 2.983345,-42.76291 0.128979,-0.97577 1.402364,0.39131 -0.934615,-1.84968 -2.207832,-2.11714 -4.892452,-3.48359 -5.890383,-4.56661 -1.683206,-1.82673 -1.96405,-2.40268 -2.264292,-4.03215 -0.527152,-2.86096 -2.063141,-4.82026 -4.125131,-5.93072 -0.791498,-0.42625 -0.7106,-1.27027 -1.367188,-2.97286 -1.932177,-5.01031 -3.07703,-9.40706 -3.066424,-15.10085 0.009,-4.81478 1.028258,-7.91525 2.629514,-12.74921 4.931618,-14.88786 17.798536,-24.863199 32.162347,-24.877772 15.3564,-0.01558 28.47504,10.362452 32.73889,26.277532 0.35676,1.33161 0.46562,3.00867 0.46599,3.24133 5.8e-4,0.37313 -1.2743,0.43695 -7.84028,0.60438 -4.15913,0.10605 -7.72462,0.31889 -7.8532,0.19029 -0.12657,-0.12657 -1.44763,-1.00431 -1.67018,-1.85875 -1.44735,-5.55673 -5.7637,-8.77164 -10.92884,-7.75546 -3.86926,0.76123 -4.56077,3.10955 -7.358338,6.24499 l -1.344668,1.50707 -0.997546,0.77069 c -0.422195,0.32618 -1.646954,-0.35528 -2.440673,-0.36554 l -1.588896,-0.0187 -1.16995,-2.18433 c -1.815772,-3.39008 -2.617917,-6.29666 -5.760303,-7.84971 -1.82337,-0.90116 -1.05314,-0.2748 -2.997217,-0.18554 -1.644735,0.0755 -2.340647,0.49829 -3.554025,1.11311 -1.957608,0.99191 -3.218164,1.60219 -4.285707,3.85572 -0.795226,1.67868 -1.328596,1.95027 -1.328596,4.82159 0,2.86723 0.145471,1.63833 0.934461,3.30372 4.101753,8.6579 13.934871,9.26145 16.940067,-0.0222 0.511943,-1.58149 1.523325,-2.98294 2.320339,-3.18827 0.610849,-0.15737 1.316015,0.53157 2.30389,0.81875 1.556216,0.4524 1.874262,0.54495 2.365227,3.70473 0.428145,2.75547 3.471005,5.42882 6.297465,6.72714 2.11845,0.9731 4.69754,0.11289 6.86793,-0.64945 2.0023,-0.7033 2.52422,-1.21306 3.78856,-2.81257 1.01474,-1.28374 2.32966,-3.77311 2.32966,-4.74688 2.82903,-1.35116 14.43426,-1.78914 17.8043,0.14652 0.0943,0.24565 0.47136,2.05579 0.48167,3.36928 l -1.05029,2.19381 -2.17951,0.62282 c -5.74334,1.64123 -9.30175,2.41334 -12.59713,9.18575 -0.70809,1.45521 -1.55372,3.59834 -1.87918,4.83526 -0.55637,2.11451 -0.3913,3.17723 -1.9196,4.66982 -1.85732,1.81392 -4.13883,2.73417 -4.12648,5.1793 0.0171,3.37426 2.42135,3.75539 5.90636,6.05249 0.22077,0.14552 -0.12895,2.09303 -0.0359,2.41065 0.13557,0.46284 -0.89859,1.6781 -1.69977,2.2225 -1.23979,0.84245 -2.58196,0.67264 -2.7838,-0.13157 -0.20516,-0.81741 1.61567,-1.36639 1.08021,-0.83104 -0.65595,0.65582 -0.97971,26.4876 -0.8175,37.33428 0.0724,4.84302 0.585,7.70849 0.69001,7.82561 0.10502,0.11712 0.62578,0.3735 1.52461,0.58318 2.97169,0.69325 5.08219,2.2548 5.46624,4.00338 0.23202,1.05638 -1.14225,2.63095 -2.01008,3.02637 -1.12017,0.51038 -4.69271,0.0888 -6.67321,-0.35436 z M 97.727756,132.00947 c 1.376857,-0.66653 0.877634,-0.76338 0.321049,-1.31997 -0.325961,-0.32596 0.971722,0.005 -0.04088,0.58381 -1.913658,1.09387 -4.337162,0.74838 -5.938363,-0.79593 -0.95356,-0.91967 -0.359146,-1.34044 -0.359146,-0.3342 0,0.7084 1.189127,0.89209 2.513541,1.47067 1.23607,0.53998 2.182706,1.03515 3.503802,0.39562 z m 32.847344,32.99156 c -2.35386,-0.81394 -5.05588,-2.95223 -6.61249,-4.80215 l -0.0115,-1.26805 -0.0364,-2.93985 3.297,-0.32074 1.97767,0.10195 c 2.15665,0.11117 2.64387,2.14886 4.03423,2.31353 1.17989,0.13974 0.58131,-0.33178 1.32221,-1.0727 0.7211,-0.72109 0.8442,0.0778 0.8442,-1.33131 0,-2.01611 -1.24775,-3.83398 -2.70748,-6.60052 -1.44935,-2.74688 -2.01069,-4.8834 -2.65344,-4.8834 -0.93053,0 -0.61396,-0.005 0.47324,1.64972 l 1.47315,0.65522 -1.1181,2.43927 c -3.28895,7.17529 -3.08029,3.34247 -3.3065,1.94533 -0.29434,-1.81797 -1.89006,-2.87324 -3.19334,-4.13988 l 0.40271,-2.36111 -2.34458,-1.96617 c -3.32238,-2.78616 6.1483,-8.97548 8.87662,-9.99359 0.86185,-0.32161 3.11115,0.62493 3.55899,0.66866 0.77552,0.0757 1.29953,-0.0321 1.22548,0.97601 -0.0593,0.80692 -0.40883,2.3529 -1.03695,2.87796 l -0.50959,0.18588 1.14674,2.49294 c 2.48501,5.40227 5.98102,9.04918 6.78704,12.74305 0.5426,2.48664 0.23516,6.88229 -0.44488,8.51258 -0.56484,1.35411 -2.7515,3.41548 -4.07861,4.03124 -1.38738,0.64371 -5.18574,0.65695 -7.00824,0.0267 z m -67.964909,-2.45397 c -3.653239,-0.51623 -4.23722,-6.22653 -2.670835,-11.52408 0.760418,-2.57174 3.249763,-8.26907 4.304021,-9.55482 l 1.588513,-0.61343 -0.09869,2.12758 -0.02657,2.43413 -1.471066,1.49232 c -1.070697,1.08616 -1.815193,1.70757 -2.128632,2.63394 -0.530667,1.56838 -0.534911,3.63917 -0.03301,5.04743 0.320169,0.89835 0.459241,1.27104 0.103547,1.81389 -0.607355,0.92694 -0.557565,0.98196 0.460395,0.77836 0.710196,-0.14204 0.845523,0.36488 1.85571,1.29604 0.645896,0.59537 1.744379,1.06623 2.396997,1.35492 0.652617,0.28868 1.520952,0.87417 1.466806,1.03661 -0.399269,1.1978 -2.65238,2.6843 -4.088262,1.91153 z m 5.18704,-3.16022 c -3.761038,-1.18937 -6.515595,-7.01092 -4.611364,-10.26025 0.617139,-1.05307 1.384247,-1.52816 1.905761,-1.39727 0.423407,0.10627 0.922048,0.21841 0.91388,-0.44926 -0.08614,-7.04117 2.553204,-1.30202 3.861572,-1.30202 2.335668,0 4.24822,1.61279 5.293901,4.3648 1.187929,3.12637 -0.2354,7.21207 -2.921249,8.62052 -1.090672,0.57194 -3.104523,0.84659 -4.442501,0.42348 z m 47.152549,-1.86056 c -2.15847,0.29165 -2.14754,-2.59596 -2.13499,-5.05473 0.0131,-2.56221 2.86719,-5.87923 4.88556,-6.93268 1.04961,-0.54783 3.53806,-0.82128 4.64345,-0.24963 0.48821,0.25247 1.32129,0.93104 1.66868,0.86464 0.47111,-0.0901 2.04829,0.47018 2.62649,1.12869 2.00992,2.28917 0.59799,7.54102 -1.75527,9.70739 -1.49448,1.3758 -3.22615,2.40612 -4.95121,2.40717 -1.39476,8.5e-4 -1.47076,-2.34539 -2.78028,-2.16845 z m -7.76465,-26.48685 c -6.82999,-1.43967 -10.531938,-12.09118 -5.93839,-17.45771 4.31872,-5.04545 13.75303,-3.29659 16.71243,2.89169 0.74181,1.55117 1.16258,2.45215 1.16258,4.71924 0,2.16292 -0.0973,2.23506 -0.69722,3.5146 -0.38347,0.81783 -1.8207,2.60921 -2.36239,3.2088 -1.89894,2.10189 -6.11254,3.70609 -8.87701,3.12338 z m 2.24218,-8.50271 c 1.18044,-1.12207 0.12293,0.60067 0.12293,-1.0309 0,-2.46053 -0.33614,-3.51727 -2.36063,-3.74547 -2.28405,-0.25744 -2.56921,0.58322 -2.82608,3.41608 -0.1719,1.89568 0.2589,2.72164 1.57065,3.58615 1.18057,0.77806 2.41594,-1.20194 3.49313,-2.22586 z m -28.130003,5.89324 c -2.238503,-0.79064 -4.698984,-4.00322 -5.541208,-6.45704 -0.656123,-1.91161 -0.967905,-5.08295 -0.219626,-7.02813 1.758137,-4.57034 7.466159,-7.35478 11.45107,-5.40515 6.725887,3.29067 7.485019,14.74278 0.635307,17.83695 -1.31603,0.59448 -4.975048,1.53036 -6.325543,1.05337 z m 4.955404,-5.36205 c 3.169666,-2.6671 2.515622,-7.13266 -1.237758,-7.13266 -1.307833,0 -1.94546,-0.1606 -2.604389,1.20056 -0.657238,1.35767 -0.748201,3.34451 -0.204386,4.64605 0.933462,2.23408 2.340738,2.72138 4.046533,1.28605 z"
         id="path3"
         sodipodi:nodetypes="cssssssssssscssssccsssssssssssssssscsccssssssssssssssssccsssscsssssssssscccsssssscccccssssssscssscssssscsssscccsscccssssssssccssscsssssssscssssssssssssssssssssssssssssss" /><path
         style="fill:#ed503b;fill-opacity:1"
         d="m 145.60452,166.22814 c -196.574817,-165.73804095 -196.574817,-165.73804095 0,0 z m -56.652918,41.99894 0.04035,1.50106 c 0.520783,2.03293 -0.167734,-0.15913 -0.04035,-1.50106 z m 39.371318,-34.70613 c -4.80923,-0.59818 -11.98479,-2.14046 -12.69714,-2.72906 -0.16614,-0.13728 -0.21734,-1.35233 -0.13515,-3.20785 l 0.13229,-2.98687 1.71979,-1.00796 1.71979,-1.00796 0.66146,0.85097 c 1.84947,2.37935 4.1988,3.91674 5.9853,3.91674 0.79713,0 1.16346,-0.19727 2.0007,-1.0774 l 1.02491,-1.07739 1.64611,0.54274 c 2.11509,0.69738 4.22654,0.91643 5.81822,0.60359 0.74302,-0.14604 1.32207,-0.1503 1.40855,-0.0104 0.27703,0.44824 -0.98212,3.63004 -1.92543,4.86545 -1.60162,2.09758 -3.74524,2.7749 -7.3594,2.32537 z m 8.54056,-1.36715 c 1.20508,-1.52455 2.06349,-3.57197 2.32541,-5.54643 0.13806,-1.04075 0.36968,-1.49958 1.10905,-2.19697 1.09983,-1.03739 2.30734,-3.45931 2.72301,-5.46161 0.16249,-0.78271 0.43425,-1.4665 0.60391,-1.51955 0.87705,-0.27421 3.33977,-0.28125 3.44391,-0.01 0.063,0.16424 0.0101,1.7992 -0.11758,3.63325 -0.56676,8.14032 -3.28506,11.64158 -9.54635,12.29601 l -1.61966,0.16929 z m -23.02908,-3.1512 c -164.804697,-168.51250095 -164.804697,-168.51250095 0,0 z m 10.25519,-3.74458 c -1.39504,-0.64828 -2.88152,-2.23319 -3.58093,-3.81803 -0.31038,-0.70332 -0.52462,-1.3173 -0.47608,-1.3644 0.0485,-0.0471 0.52929,-0.12306 1.06833,-0.16878 0.90447,-0.0767 1.09376,0.0425 2.45346,1.54501 0.81036,0.89548 1.88737,1.884 2.39336,2.19672 1.02394,0.63283 1.19787,1.41641 0.40821,1.83903 -0.70064,0.37497 -1.03933,0.34066 -2.26635,-0.22955 z m 8.04534,-8.46341 c -1.74109,-0.6812 -3.73411,-2.10615 -3.48564,-2.49213 1.02052,-1.58527 3.03662,-4.65288 3.33178,-5.06947 0.35724,-0.50423 0.38219,-0.49565 0.76947,0.26458 1.42102,2.78945 2.20101,6.75124 1.47259,7.47966 -0.40925,0.40925 -0.62321,0.39053 -2.0882,-0.18264 z m 12.70774,-5.63545 c -0.0203,-5.55541 -0.19815,-11.15501 -0.39109,-12.31059 -0.15652,-0.93742 -0.81386,-1.75596 -1.21236,-1.50968 -0.1593,0.0985 -0.20019,3.24316 -0.10927,8.40296 0.0799,4.53508 0.0885,8.12655 0.0191,7.98103 -0.0694,-0.14552 -0.53582,-1.6338 -1.03644,-3.30729 -0.91001,-3.042 -0.91025,-3.04426 -1.03137,-9.65729 -0.12747,-6.95974 -0.29819,-8.08772 -1.52434,-10.07168 -0.62457,-1.01058 -0.47078,-1.54964 0.70629,-2.47551 0.83149,-0.65405 2.42834,-0.72657 3.52391,-0.16003 0.8417,0.43526 1.69943,2.01304 2.11488,3.8903 0.1506,0.68049 0.33649,3.7009 0.41309,6.71202 0.0766,3.01113 0.20415,5.57976 0.28345,5.70806 0.0793,0.12831 0.2981,0.23329 0.48622,0.23329 0.41419,0 0.68115,-2.91953 0.68348,-7.47448 9.6e-4,-1.89512 0.10488,-3.10885 0.26617,-3.10885 0.14552,0 0.26458,0.0517 0.26458,0.11499 0,0.0632 0.17783,0.96039 0.39518,1.99364 1.05059,4.99429 1.55921,12.70542 0.92796,14.06853 -0.19044,0.41126 -0.73544,0.86078 -1.32381,1.09189 -0.9951,0.39089 -1.00123,0.4026 -1.22732,2.34367 l -0.22722,1.95082 -0.99219,0.0821 -0.99218,0.0821 z M 67.33646,143.541 c 0,-0.94568 1.118391,-1.06079 1.529966,-0.15748 0.267772,0.58769 0.227531,0.63522 -0.621833,0.73437 -0.827278,0.0966 -0.908133,0.0452 -0.908133,-0.57689 z m 53.36663,0.33198 c -1.0431,-0.0838 -1.24655,-0.18203 -1.13946,-0.55003 0.0717,-0.24639 0.32848,-1.14747 0.57061,-2.00239 0.59163,-2.08897 2.81451,-6.35714 4.09314,-7.68781 0.83458,-0.86856 1.25092,-1.52112 0.81816,-1.19879 -0.52888,0.39393 0.47394,-0.13263 0.78199,-0.39059 0.1356,-0.11355 0.0232,-0.10271 -0.19294,-0.0198 -0.89333,0.3428 0.85469,-0.39825 1.88931,-0.88995 3.81794,-1.81445 5.11079,-2.09823 7.39694,-1.62362 1.57887,0.32777 2.00108,0.80136 2.00108,2.24463 0,0.60724 -0.0397,0.61668 -2.05052,0.48814 -1.73676,-0.11102 -2.46906,-0.0134 -3.82971,0.74303 -1.08297,0.60202 -0.68901,0.12114 -1.46845,0.74077 -0.82973,0.6596 -1.23836,1.28973 -0.53467,0.6924 0.75418,-0.64019 -0.66985,-0.17143 -2.58218,1.97366 -1.1118,1.24713 -1.82041,2.53995 -2.88212,5.25827 -0.49029,1.25529 -1.05116,2.29174 -1.24637,2.30321 -0.19522,0.0115 -0.92637,-0.0251 -1.62477,-0.0812 z m 17.83568,-1.26172 c -0.34714,-0.65436 -1.01216,-1.78113 -1.47784,-2.50392 l -0.84667,-1.31418 0.41995,-1.96866 c 0.30716,-1.43987 0.60519,-2.14028 1.10956,-2.6076 0.37929,-0.35142 0.74994,-0.80931 0.82368,-1.01753 0.22507,-0.63556 0.47463,-0.12997 0.74214,1.50355 0.30053,1.83517 0.34782,9.09808 0.0592,9.09808 -0.10939,0 -0.48291,-0.53538 -0.83005,-1.18974 z m -0.88961,-15.80974 c -0.0715,-0.9095 -0.044,-1.7491 0.0613,-1.86577 0.19975,-0.22145 2.42024,0.23514 3.28002,0.67445 0.43899,0.22431 0.37624,0.30772 -0.54011,0.71798 -0.57024,0.25531 -1.35161,0.83832 -1.73638,1.29559 -0.38477,0.45727 -0.75248,0.8314 -0.81715,0.8314 -0.0647,0 -0.1761,-0.74414 -0.24764,-1.65365 z m -18.14745,-5.41372 c -170.497627,-121.61511338 -170.497627,-121.61511338 0,0 z m 6.8363,-1.24707 c 0,0 2.74899,-0.006 0,0 z"
         id="path2"
         sodipodi:nodetypes="ssscssssscccssscsssssccssssccscccsssssssssssssscssssssssssssssssssssscccsssssssssssssssssssssssssscsssssssscssssssscc" /><path
         style="fill:#010000;fill-opacity:1"
         d="m 114.96146,215.64578 c -4.11587,-0.72655 -6.68647,-2.24547 -6.97503,-4.12141 -0.6332,-4.11648 -1.60165,-30.62665 -1.36731,-37.42854 l 0.1732,-5.02708 -1.00866,-0.96154 -1.00866,-0.96153 -3.96875,-0.14837 c -2.573211,-0.0962 -4.696834,-0.32846 -6.039341,-0.66051 l -2.070593,-0.51213 c -0.564184,1.42093 -1.05848,6.82612 -1.707262,15.54721 -0.22739,3.05663 -0.466031,10.79374 -0.546767,17.72708 -0.157318,13.50977 -0.488154,13.83757 -1.906959,14.59081 -10.445796,5.54565 -22.126869,-4.09836 -8.32361,-8.18279 3.527662,-1.04385 -0.337104,-10.702 3.946195,-42.42987 0.210664,-1.36322 -0.586243,-2.07815 -2.316422,-2.07815 -1.470697,0 -3.328165,-0.64774 -5.252003,-1.83149 l -1.353464,-0.83279 -1.549138,1.03447 c -0.852026,0.56896 -2.00435,1.11928 -2.56072,1.22294 -0.690725,0.12869 -1.248543,0.47495 -1.758664,1.09168 -1.867023,2.25721 -4.896361,2.97456 -7.289979,1.72627 -1.428761,-0.74511 -2.261917,-1.62241 -3.169207,-3.33712 -0.648091,-1.22485 -0.698812,-1.55828 -0.684205,-4.49792 0.01358,-2.73347 0.118359,-3.48775 0.753432,-5.42396 0.97776,-2.98099 3.501219,-7.82721 5.441928,-10.45104 3.002359,-4.05918 2.960763,-3.95622 2.620318,-6.48592 -0.435138,-3.23333 -0.148745,-10.63128 0.529865,-13.68721 2.320463,-10.44953 8.077739,-19.40241 15.774098,-24.52958 4.315456,-2.874876 9.135359,-4.823179 13.850813,-5.598781 3.959785,-0.651309 9.576175,-0.381441 13.609625,0.653943 5.85798,1.503738 10.91497,4.404564 15.2776,8.763644 5.09158,5.087424 8.71327,11.911904 10.32336,19.452654 0.27964,1.30969 0.5103,2.74545 0.51258,3.19058 0.007,1.27622 0.54283,1.73319 2.66717,2.27267 2.34269,0.59493 4.95267,1.77804 6.33145,2.87005 1.20975,0.95814 2.43748,2.82941 3.03857,4.63129 1.14768,3.44043 2.23066,10.76664 2.30958,15.62404 0.0585,3.59869 -0.24602,4.54332 -1.75069,5.43109 l -0.86897,0.51271 -0.15966,4.82649 c -0.26064,7.87945 -1.21816,11.54697 -3.64942,13.97824 -3.9271,3.9271 -12.95477,4.56126 -25.37638,1.7826 -1.96453,-0.43945 -3.68751,-0.81727 -3.82883,-0.83959 -0.51643,-0.0816 -0.60758,2.80052 -0.37526,11.86566 0.31549,12.31089 0.85437,20.98536 1.33004,21.41019 0.19828,0.17708 1.04293,0.52755 1.87701,0.77882 1.77933,0.53603 3.53581,1.79362 4.2765,3.06185 0.64669,1.1073 0.68397,3.00678 0.0816,4.15694 -0.90048,1.71929 -4.16196,2.476 -7.85895,1.8234 z m 6.1746,-1.95368 c 0.93874,-0.8827 1.07064,-1.71969 0.48103,-3.05259 -0.73219,-1.65525 -2.40674,-2.6499 -5.40967,-3.21325 -0.54297,-0.10187 -1.0614,-0.30524 -1.15207,-0.45194 -0.0907,-0.1467 -0.20189,-1.05594 -0.24716,-2.02053 -0.0453,-0.96458 -0.28918,-4.96848 -0.54202,-8.89754 -0.64218,-9.97917 -0.66216,-34.07782 -0.0288,-34.7112 0.56523,-0.56523 1.25324,-0.25141 1.25324,0.57165 0,0.84146 0.32287,0.84094 1.76269,-0.003 0.94998,-0.55673 1.14772,-0.80957 1.14772,-1.46752 0,-0.62797 -0.18058,-0.88955 -0.85989,-1.24561 -0.47295,-0.2479 -1.47917,-1.06728 -2.23607,-1.82085 -1.06632,-1.06165 -1.47573,-1.71261 -1.81838,-2.89131 -0.95186,-3.27428 0.0154,-6.45053 2.65957,-8.73334 0.95378,-0.82343 1.46102,-1.4652 1.46102,-1.84849 0,-0.96329 1.52576,-5.33529 2.51849,-7.21666 3.20721,-6.0781 7.43558,-8.97454 13.29037,-9.1039 l 2.57969,-0.057 -0.0692,-2.11667 c -0.0381,-1.16416 -0.13308,-2.50535 -0.21115,-2.98042 l -0.14196,-0.86376 -7.95495,0.07 -7.95496,0.07 -0.49728,1.95854 c -1.08964,4.29152 -4.09237,7.10938 -8.52423,7.99942 -1.73299,0.34804 -4.03966,10e-4 -5.94252,-0.89307 -3.06447,-1.44047 -5.656656,-5.1407 -6.072363,-8.66802 -0.196224,-1.66497 -0.232193,-1.72986 -1.128496,-2.03559 -1.241707,-0.42354 -3.573332,-0.4325 -3.8898,-0.0149 -0.137861,0.1819 -0.403974,0.86651 -0.591363,1.52135 -0.917594,3.20661 -2.903111,5.60682 -5.733941,6.93152 -1.58427,0.74137 -1.896581,0.79655 -3.889563,0.68714 -2.664832,-0.14629 -3.935554,-0.74352 -6.006549,-2.82303 -4.093912,-4.11076 -4.143331,-11.06013 -0.109322,-15.37282 4.616127,-4.93501 11.724025,-3.70952 14.892751,2.56769 0.433089,0.85794 0.863425,2.02879 0.956303,2.60189 0.372377,2.29773 0.214795,2.13906 2.31656,2.33259 1.057574,0.0974 2.214392,0.20402 2.570708,0.23697 0.56228,0.052 0.695297,-0.10585 1.00711,-1.19523 0.504202,-1.76152 2.337565,-4.37403 3.901295,-5.55925 5.76279,-4.36791 14.04131,-1.21759 16.16895,6.15295 l 0.57282,1.98438 7.70932,0.0701 c 6.48914,0.059 7.73231,0.0102 7.8546,-0.30844 0.18313,-0.47723 -0.98769,-4.91309 -1.91416,-7.25212 -3.45506,-8.72296 -9.59019,-15.612652 -17.10503,-19.208785 -6.25173,-2.991693 -14.56969,-3.850149 -21.114224,-2.179095 -6.548255,1.672003 -11.246869,4.357312 -15.89598,9.08472 -4.782332,4.86288 -7.942977,10.55516 -9.851669,17.74273 -1.86687,7.03008 -1.560792,15.72852 0.80766,22.95292 0.988122,3.01403 1.553744,4.01406 2.676791,4.73262 1.074478,0.68748 2.117701,1.74305 2.824166,2.85759 0.507058,0.79995 1.194292,3.17982 1.208138,4.18375 0.01321,0.95773 3.215053,4.3561 6.229705,6.61208 1.554898,1.16359 2.498703,2.05175 2.498703,2.35138 0,0.26483 -0.29374,3.08913 -0.652756,6.27621 -1.174261,10.42424 -1.993077,24.00359 -1.993077,33.05341 l -0.62956,5.20992 -1.252896,0.46225 c -3.260948,1.20312 -6.412678,2.0874 -5.971515,4.08948 0.42396,1.92401 2.215319,2.85447 6.398762,2.8965 2.91748,0.0293 5.907573,-0.65888 6.747567,-1.55301 0.57274,-0.60966 0.581185,-0.74486 0.663786,-10.62714 0.08801,-10.52986 0.316357,-15.46817 1.196883,-25.88463 0.714624,-8.45387 1.017582,-11.05456 1.323382,-11.36036 0.163581,-0.16358 0.955836,-0.0488 2.210225,0.32026 1.075387,0.31639 2.817168,0.70898 3.870625,0.87243 2.074984,0.32194 8.547784,0.24834 8.896894,-0.10116 0.11793,-0.11807 0.27657,-0.83245 0.35253,-1.5875 0.11573,-1.15041 0.22384,-1.37283 0.66728,-1.37283 0.52013,0 0.52972,0.18734 0.56202,10.98021 0.0377,12.60634 0.21361,19.00987 0.76305,27.78124 0.21421,3.41974 0.39065,7.01578 0.3921,7.9912 0.003,2.32054 0.35615,3.02339 1.91327,3.81244 1.99475,1.01082 4.03028,1.41074 6.86602,1.34897 2.27832,-0.0496 2.63133,-0.12377 3.21876,-0.67613 z M 93.995634,132.5906 c -1.343189,-0.49833 -2.227277,-1.10588 -2.733503,-1.87848 -0.79162,-1.20817 0.170805,-1.64302 1.203491,-0.54378 1.439115,1.53187 3.866208,1.78899 5.78031,0.61236 0.619137,-0.3806 0.962203,-0.45756 1.159611,-0.26016 0.450682,0.45069 0.04997,1.04562 -1.099096,1.63183 -1.418583,0.72371 -3.084801,0.89309 -4.310813,0.43823 z m 39.387376,40.47184 c 0.885,-0.41207 1.68358,-1.06046 2.29931,-1.86686 0.94331,-1.23541 2.20246,-4.41721 1.92543,-4.86545 -0.0865,-0.13993 -0.66553,-0.13567 -1.40855,0.0104 -1.59168,0.31284 -3.70313,0.0938 -5.81822,-0.60359 l -1.64611,-0.54274 -1.02491,1.07739 c -0.83724,0.88013 -1.20357,1.0774 -2.0007,1.0774 -1.7865,0 -4.13583,-1.53739 -5.9853,-3.91674 l -0.66146,-0.85097 -1.71979,1.00796 -1.71979,1.00796 -0.13229,2.98687 c -0.0822,1.85552 -0.031,3.07057 0.13515,3.20785 0.46112,0.38102 6.22196,1.77864 9.12526,2.21387 5.81875,0.87227 6.8656,0.87914 8.63197,0.0567 z m 7.13139,-0.40672 c 4.09424,-1.43901 5.96377,-4.80906 6.43679,-11.60307 0.1277,-1.83405 0.18061,-3.46901 0.11758,-3.63325 -0.10414,-0.27141 -2.56686,-0.26437 -3.44391,0.01 -0.16966,0.0531 -0.44142,0.73684 -0.60391,1.51955 -0.41567,2.0023 -1.62318,4.42422 -2.72301,5.46161 -0.73937,0.69739 -0.97099,1.15622 -1.10905,2.19697 -0.26192,1.97446 -1.12033,4.02188 -2.32541,5.54643 l -1.0783,1.36415 1.61966,-0.16929 c 0.89082,-0.0931 2.29012,-0.40493 3.10956,-0.69294 z m -14.15846,-7.16815 c 0.78966,-0.42262 0.61573,-1.2062 -0.40821,-1.83903 -0.50599,-0.31272 -1.583,-1.30124 -2.39336,-2.19672 -1.3597,-1.50252 -1.54899,-1.62172 -2.45346,-1.54501 -0.53904,0.0457 -1.01979,0.12167 -1.06833,0.16878 -0.0485,0.0471 0.1657,0.66108 0.47608,1.3644 0.69941,1.58484 2.18589,3.16975 3.58093,3.81803 1.22702,0.57021 1.56571,0.60452 2.26635,0.22955 z m 10.43329,-0.81196 c 1.40166,-0.35294 3.13918,-1.78001 3.84014,-3.15401 0.70862,-1.389 1.14475,-4.47823 0.92919,-6.58174 -0.38865,-3.7928 -2.74827,-9.38479 -6.11439,-14.49033 -0.93351,-1.41589 -1.69729,-2.63554 -1.69729,-2.71033 0,-0.0748 0.30939,-0.38268 0.68753,-0.6842 0.50473,-0.40246 0.72409,-0.87257 0.82503,-1.76812 0.16874,-1.49711 -0.22129,-1.70778 -2.20778,-1.19249 -3.05678,0.79292 -5.12387,2.75104 -7.01215,6.6425 -1.55168,3.19777 -1.56526,3.5669 -0.18218,4.95173 1.38509,1.38683 2.03985,2.68526 2.25034,4.46257 0.0862,0.72752 0.26177,1.32277 0.39022,1.32277 0.28564,0 1.51665,-1.91026 2.18239,-3.3866 l 0.48943,-1.08538 -0.97859,-1.47432 c -0.9834,-1.48155 -1.13923,-2.38807 -0.41052,-2.38807 0.57866,0 3.02571,3.39042 4.20122,5.82083 1.45794,3.01434 1.98613,4.7837 2.00102,6.70306 0.0118,1.51604 -0.0578,1.73696 -0.72936,2.3151 -1.41245,1.21604 -3.37154,0.80209 -6.47654,-1.36846 -1.64691,-1.15127 -1.76505,-1.19253 -2.09238,-0.73077 -0.55401,0.78155 -2.19385,2.47378 -2.43258,2.47378 -1.19722,0 1.80142,3.39572 4.35267,4.89085 2.65966,1.55866 5.62216,2.07686 8.18458,1.43163 z m -70.692027,-2.2079 c 1.025374,-0.36569 2.033007,-1.10994 2.033007,-1.5016 0,-0.11848 -0.632417,-0.52509 -1.40537,-0.90357 -0.772954,-0.37847 -1.874282,-1.11845 -2.447396,-1.64439 -0.805427,-0.73912 -1.23727,-0.9433 -1.901922,-0.89922 -0.677865,0.045 -0.859895,-0.0456 -0.859895,-0.42752 0,-0.26649 0.131781,-0.61632 0.292848,-0.77738 0.214076,-0.21408 0.178491,-0.74884 -0.132292,-1.98805 -0.528797,-2.10853 -0.527818,-2.31511 0.02034,-4.28987 0.368048,-1.32592 0.705827,-1.86117 1.943366,-3.07949 l 1.497889,-1.47463 0.149244,-2.17742 c 0.181896,-2.6538 -0.03203,-2.67808 -1.574192,-0.17861 -2.471251,4.00527 -4.313866,9.32029 -4.313866,12.44334 0,3.20835 1.346949,5.7789 3.553158,6.78094 1.275201,0.57918 1.795958,0.59863 3.145085,0.11747 z m 5.971202,-3.56983 c 2.403751,-1.2263 3.808688,-4.19561 3.250342,-6.86953 -0.555472,-2.66015 -1.807654,-4.51107 -3.616662,-5.34598 -1.860949,-0.85889 -3.824322,-0.57978 -5.208302,0.74039 -0.529811,0.50538 -0.878241,0.6355 -1.370733,0.51189 -0.524332,-0.1316 -0.763602,-0.0158 -1.161648,0.56231 -0.940697,1.36618 -1.199831,2.39148 -1.05631,4.17944 0.220908,2.75206 1.994032,5.2526 4.49549,6.33975 1.261396,0.54821 3.471158,0.49222 4.667823,-0.11827 z m 6.248263,-1.3385 c -1.411554,-1.43311 -1.719791,-1.58364 -1.719791,-0.83987 0,0.73618 1.711815,2.13552 2.635887,2.15474 0.212811,0.004 -0.199432,-0.58727 -0.916096,-1.31487 z m 43.855952,0.5149 c 1.58299,-0.43961 3.69284,-2.69684 4.27915,-4.57804 0.9609,-3.08309 -0.51674,-6.83619 -2.53164,-7.25477 -0.39342,-0.0817 -0.82988,-0.16935 -1.52506,-0.33162 -2.01576,-0.4705 -4.67623,-0.1091 -6.03162,1.36527 -1.49158,1.62251 -2.15883,4.33853 -1.56647,6.37618 1.06484,3.66293 3.92859,5.38023 7.37564,4.42294 z m 12.05051,-1.09699 c 0.72842,-0.72842 -0.0516,-4.69021 -1.47259,-7.47966 -0.38728,-0.76023 -0.41223,-0.76881 -0.76947,-0.26458 -0.29516,0.41659 -2.31126,3.4842 -3.33178,5.06947 -0.24847,0.38598 1.74455,1.81093 3.48564,2.49213 1.46499,0.57317 1.67895,0.59189 2.0882,0.18264 z m 12.84784,-3.35311 c 0.22609,-1.94107 0.23222,-1.95278 1.22732,-2.34367 0.58837,-0.23111 1.13337,-0.68063 1.32381,-1.09189 0.63125,-1.36311 0.12263,-9.07424 -0.92796,-14.06853 -0.21735,-1.03325 -0.39518,-1.93039 -0.39518,-1.99364 0,-0.0632 -0.11906,-0.11499 -0.26458,-0.11499 -0.16129,0 -0.26521,1.21373 -0.26617,3.10885 -0.002,4.55495 -0.26929,7.47448 -0.68348,7.47448 -0.18812,0 -0.40692,-0.10498 -0.48622,-0.23329 -0.0793,-0.1283 -0.20685,-2.69693 -0.28345,-5.70806 -0.0766,-3.01112 -0.26249,-6.03153 -0.41309,-6.71202 -0.41545,-1.87726 -1.27318,-3.45504 -2.11488,-3.8903 -1.09557,-0.56654 -2.69242,-0.49402 -3.52391,0.16003 -1.17707,0.92587 -1.33086,1.46493 -0.70629,2.47551 1.22615,1.98396 1.39687,3.11194 1.52434,10.07168 0.12112,6.61303 0.12136,6.61529 1.03137,9.65729 0.50062,1.67349 0.96702,3.16177 1.03644,3.30729 0.0694,0.14552 0.0608,-3.44595 -0.0191,-7.98103 -0.0909,-5.1598 -0.05,-8.3045 0.10927,-8.40296 0.3985,-0.24628 1.05584,0.57226 1.21236,1.50968 0.19294,1.15558 0.37083,6.75518 0.39109,12.31059 l 0.0167,4.58004 0.99218,-0.0821 0.99219,-0.0821 z M 68.866426,143.38356 c -0.411575,-0.90331 -1.529966,-0.7882 -1.529966,0.15748 0,0.62211 0.08085,0.67347 0.908133,0.57689 0.849364,-0.0992 0.889605,-0.14668 0.621833,-0.73437 z m 54.707804,-1.73258 c 1.06171,-2.71832 1.77032,-4.01114 2.88212,-5.25827 1.91233,-2.14509 1.525,-1.81133 2.02162,-2.11273 1.5203,-0.92267 0.52786,-0.33552 1.32678,-0.87779 1.40389,-0.6754 0.14826,-0.20917 1.29629,-0.64199 1.45664,-0.54921 2.03356,-0.62837 3.77032,-0.51735 2.01086,0.12854 2.05052,0.1191 2.05052,-0.48814 0,-1.44327 -0.42221,-1.91686 -2.00108,-2.24463 -2.28615,-0.47461 -3.579,-0.19083 -7.39694,1.62362 -1.03462,0.4917 -1.43135,0.9181 -1.61038,1.04473 -0.0556,0.0649 -0.16192,0.15211 -0.31465,0.25144 -0.29165,0.18966 -0.14712,0.0928 -0.22482,0.16538 -0.23084,0.21574 -0.2715,0.2987 -1.10608,1.16726 -1.27863,1.33067 -3.54204,5.46913 -4.13367,7.5581 -0.24213,0.85492 -0.49891,1.756 -0.57061,2.00239 -0.10709,0.368 0.0964,0.46621 1.13946,0.55003 0.6984,0.0561 1.42955,0.0926 1.62477,0.0812 0.19521,-0.0115 0.75608,-1.04792 1.24637,-2.30321 z m 15.99195,-1.62025 c -0.002,-4.69168 -0.51459,-8.19843 -0.99873,-6.83132 -0.0737,0.20822 -0.44439,0.66611 -0.82368,1.01753 -0.50437,0.46732 -0.8024,1.16773 -1.10956,2.6076 l -0.41995,1.96866 0.84667,1.31418 c 0.46568,0.72279 1.1307,1.84956 1.47784,2.50392 0.34714,0.65436 0.72066,1.18974 0.83005,1.18974 0.10939,0 0.1982,-1.69664 0.19736,-3.77031 z m -27.52008,-9.85398 c 1.69633,-0.5985 3.67214,-2.18263 4.67222,-3.74602 3.2633,-5.10136 1.36071,-11.80261 -4.09714,-14.43083 -4.38694,-2.11252 -9.52904,-0.2614 -11.73906,4.22598 -1.581293,3.21077 -1.307804,7.39369 0.67211,10.27968 1.08032,1.57471 3.00719,3.079 4.6439,3.62545 1.57825,0.52692 4.42113,0.54916 5.84797,0.0457 z m -6.67433,-4.78253 c -1.04213,-0.5654 -1.82519,-2.26026 -1.82519,-3.95047 0,-4.10847 3.74346,-5.97985 6.17691,-3.08786 0.80479,0.95644 1.12915,2.49131 0.86222,4.08005 -0.2786,1.65822 -2.04787,3.37742 -3.46079,3.36284 -0.56485,-0.006 -1.35377,-0.18788 -1.75315,-0.40456 z m 33.34218,2.22959 c 0.38477,-0.45727 1.16614,-1.04028 1.73638,-1.29559 0.91635,-0.41026 0.9791,-0.49367 0.54011,-0.71798 -0.85978,-0.43931 -3.08027,-0.8959 -3.28002,-0.67445 -0.19761,0.2191 -0.0228,3.51942 0.18638,3.51942 0.0647,0 0.43238,-0.37413 0.81715,-0.8314 z m -51.930615,-0.18726 c 2.819288,-1.33844 4.641553,-3.84474 5.21136,-7.1676 0.559458,-3.26251 -0.41256,-6.49063 -2.614987,-8.68449 -1.5772,-1.57106 -2.952055,-2.24506 -4.875597,-2.39018 -3.372083,-0.25439 -6.305932,1.54833 -7.947901,4.88364 -1.585934,3.22149 -1.320665,7.43636 0.64779,10.29277 1.150086,1.66889 2.488982,2.72444 4.209605,3.31876 2.037677,0.70382 3.499522,0.63497 5.36973,-0.2529 z m -3.293933,-3.68997 c -1.287977,-0.70451 -1.991945,-2.18583 -1.995143,-4.19826 -0.0022,-1.39183 0.11542,-1.79901 0.802596,-2.77813 1.718728,-2.44893 4.880304,-2.09889 5.924064,0.65589 0.509076,1.3436 0.351092,3.70591 -0.313105,4.68182 -1.265256,1.85905 -2.904254,2.46691 -4.418412,1.63868 z"
         id="path1"
         sodipodi:nodetypes="ssscccsscssssssscssssssssssssssscssssscssssssssssscssssssscssssssssccscccsscssssssssssssssscssssssssssssssscsssssssssssssscssccsssssssssscscssscccssssscssssssscsccssssssssssssssssssssscsssscssssssssscssssscssssssssssssssssscsssssssssssssssssssscssssssssssscsscccssscsscscssssscsssssscssccsscsssccsssssccsssscssssssssssssssssssssss" /></g></g></svg>
